<svg width="393" height="58" viewBox="0 0 393 58" fill="none" xmlns="http://www.w3.org/2000/svg">
<rect opacity="0.35" x="333.5" y="23.5" width="24" height="13" rx="3" stroke="#111111"/>
<rect x="335" y="25" width="21" height="10" rx="3" fill="#111111"/>
<path opacity="0.35" d="M359 28C359 28 361 28.4 361 30C361 31.6 359 32 359 32V28Z" fill="#111111"/>
<path fill-rule="evenodd" clip-rule="evenodd" d="M317.5 32C318.867 32 320.104 32.5596 321 33.4645L317.5 37L314 33.4645C314.896 32.5596 316.133 32 317.5 32ZM317 27C319.734 27 322.209 28.1082 324 29.8998L321.9 32C320.646 30.7459 318.914 29.9701 317 29.9701C315.086 29.9701 313.354 30.7459 312.1 32L310 29.8998C311.791 28.1082 314.266 27 317 27ZM317.132 22.0048L317.5 22L317.949 22.0072L318.343 22.0256L318.683 22.0504L319.115 22.0943L319.475 22.1413L319.865 22.2033L320.268 22.2797L320.668 22.3678L321.016 22.4547L321.422 22.5684L321.838 22.6988L322.123 22.7966L322.435 22.9116L322.77 23.045L323.143 23.2047L323.509 23.3746L323.849 23.5437L324.179 23.7192L324.505 23.9031L324.822 24.0926L325.125 24.2848L325.45 24.503L325.771 24.73L326.068 24.9527L326.338 25.165L326.695 25.4618L326.959 25.6934L327.224 25.9367L327.52 26.2235L327.832 26.5423L328 26.7217L325.899 29C323.749 26.6667 320.78 25.2235 317.5 25.2235C314.22 25.2235 311.25 26.6664 309.1 28.9995L307 26.7207L307.024 26.6949C307.112 26.5993 307.202 26.5049 307.293 26.4117C307.472 26.2276 307.655 26.0484 307.842 25.8741L308.049 25.6852L308.304 25.4621L308.531 25.2713L308.781 25.0695L309.035 24.8731L309.183 24.7636L309.592 24.4732L309.899 24.2686L310.178 24.0926L310.587 23.8492L310.916 23.6666L311.251 23.4926L311.563 23.3398L311.929 23.1726L312.3 23.016L312.628 22.8873L313.052 22.7354L313.344 22.6396L313.726 22.525L314.104 22.4233L314.433 22.3442L314.811 22.2635L315.194 22.1932L315.562 22.1359L315.945 22.0873L316.336 22.0487L316.768 22.0192L317.132 22.0048Z" fill="#111111"/>
<rect x="280" y="31" width="4" height="5" rx="1.5" fill="#111111"/>
<rect x="286" y="29" width="4" height="7" rx="1.5" fill="#111111"/>
<rect x="292" y="26" width="4" height="10" rx="1.5" fill="#111111"/>
<rect x="298" y="23" width="4" height="13" rx="1.5" fill="#111111"/>
<path d="M53.937 22C51.054 22 49 23.9776 49 26.6851V26.7036C49 29.2356 50.7869 31.1023 53.3383 31.1023C55.1621 31.1023 56.3226 30.169 56.8108 29.1155H56.995C56.995 29.2172 56.9858 29.3188 56.9858 29.4205C56.8845 31.971 55.991 34.0409 53.8818 34.0409C52.712 34.0409 51.8922 33.431 51.5422 32.4977L51.5146 32.4053H49.175L49.1934 32.5069C49.6171 34.5492 51.4409 36 53.8818 36C57.2253 36 59.2425 33.3386 59.2425 28.8475V28.829C59.2425 24.0238 56.774 22 53.937 22ZM53.9278 29.2726C52.4172 29.2726 51.3211 28.1637 51.3211 26.6205V26.602C51.3211 25.1142 52.4909 23.9406 53.9554 23.9406C55.4292 23.9406 56.5805 25.1327 56.5805 26.6574V26.6759C56.5805 28.1822 55.4292 29.2726 53.9278 29.2726Z" fill="#111111"/>
<path d="M63.4242 27.0271C64.2716 27.0271 64.8887 26.3802 64.8887 25.567C64.8887 24.7446 64.2716 24.1069 63.4242 24.1069C62.586 24.1069 61.9597 24.7446 61.9597 25.567C61.9597 26.3802 62.586 27.0271 63.4242 27.0271ZM63.4242 33.8838C64.2716 33.8838 64.8887 33.2462 64.8887 32.4238C64.8887 31.6013 64.2716 30.9637 63.4242 30.9637C62.586 30.9637 61.9597 31.6013 61.9597 32.4238C61.9597 33.2462 62.586 33.8838 63.4242 33.8838Z" fill="#111111"/>
<path d="M74.0535 35.6673H76.3286V33.1076H78.1155V31.1393H76.3286V22.3327H72.9666C71.1613 25.0865 69.2731 28.1545 67.5507 31.1578V33.1076H74.0535V35.6673ZM69.7613 31.1947V31.0561C71.0508 28.7921 72.589 26.3248 73.9522 24.2363H74.0904V31.1947H69.7613Z" fill="#111111"/>
<path d="M83.6236 35.6673H86V22.3327H83.6328L80.1603 24.7815V27.0271L83.467 24.6799H83.6236V35.6673Z" fill="#111111"/>
</svg>
