<svg width="256" height="251" viewBox="0 0 256 251" fill="none" xmlns="http://www.w3.org/2000/svg">
<path d="M173.888 71.8168C170.191 59.5625 156.456 52.7027 146.109 49.6439C142.219 48.494 139.44 44.7885 139.99 40.7694L140.367 38.0111C140.904 34.0829 144.443 31.2458 148.374 31.7645C209.498 39.8296 233.855 81.298 220.406 92.2253C210.918 99.9334 199.079 91.8111 192.168 84.5587C191.581 83.942 190.171 84.7101 190.353 85.5423C191.52 90.8797 191.598 97.2094 186.68 97.8943C178.54 99.0281 179.703 91.0914 173.888 71.8168Z" fill="url(#paint0_linear_597_9823)"/>
<path d="M173.888 71.8168C170.191 59.5625 156.456 52.7027 146.109 49.6439C142.219 48.494 139.44 44.7885 139.99 40.7694L140.367 38.0111C140.904 34.0829 144.443 31.2458 148.374 31.7645C209.498 39.8296 233.855 81.298 220.406 92.2253C210.918 99.9334 199.079 91.8111 192.168 84.5587C191.581 83.942 190.171 84.7101 190.353 85.5423C191.52 90.8797 191.598 97.2094 186.68 97.8943C178.54 99.0281 179.703 91.0914 173.888 71.8168Z" fill="url(#paint1_linear_597_9823)"/>
<path d="M57.3503 30.7474C63.5352 11.0842 90.4648 11.0842 96.6497 30.7474C99.4157 39.541 107.349 45.4947 116.299 45.4947C136.314 45.4947 144.636 71.9513 128.444 84.1038C121.202 89.5385 118.172 99.1718 120.938 107.965C127.123 127.629 105.336 143.98 89.1442 131.827C81.9028 126.392 72.0972 126.392 64.8558 131.827C48.6635 143.98 26.877 127.629 33.0619 107.965C35.8279 99.1718 32.7978 89.5385 25.5564 84.1038C9.36409 71.9513 17.6858 45.4947 37.7005 45.4947C46.6514 45.4947 54.5843 39.541 57.3503 30.7474Z" fill="url(#paint2_linear_597_9823)"/>
<path d="M57.3503 30.7474C63.5352 11.0842 90.4648 11.0842 96.6497 30.7474C99.4157 39.541 107.349 45.4947 116.299 45.4947C136.314 45.4947 144.636 71.9513 128.444 84.1038C121.202 89.5385 118.172 99.1718 120.938 107.965C127.123 127.629 105.336 143.98 89.1442 131.827C81.9028 126.392 72.0972 126.392 64.8558 131.827C48.6635 143.98 26.877 127.629 33.0619 107.965C35.8279 99.1718 32.7978 89.5385 25.5564 84.1038C9.36409 71.9513 17.6858 45.4947 37.7005 45.4947C46.6514 45.4947 54.5843 39.541 57.3503 30.7474Z" fill="url(#paint3_linear_597_9823)"/>
<path d="M57.312 30.8199C63.0551 12.4966 86.6592 11.1646 95 26.8231C85.8808 50.8942 62.6771 68 35.4923 68C29.0606 68 22.8522 67.0407 17 65.26C17.9259 55.0594 25.7066 45.6403 37.6356 45.6403C46.5987 45.6402 54.5423 39.657 57.312 30.8199Z" fill="white" fill-opacity="0.2"/>
<path d="M63.8078 68.7263C63.8078 67.7381 64.2016 66.7902 64.9024 66.0914C65.6033 65.3926 66.5539 65 67.545 65C68.5362 65 69.4868 65.3926 70.1877 66.0914C70.8885 66.7902 71.2823 67.7381 71.2823 68.7263C71.2823 69.7146 70.8885 70.6624 70.1877 71.3613C69.4868 72.0601 68.5362 72.4527 67.545 72.4527C66.5539 72.4527 65.6033 72.0601 64.9024 71.3613C64.2016 70.6624 63.8078 69.7146 63.8078 68.7263ZM86.2311 65C87.2223 65 88.1729 65.3926 88.8738 66.0914C89.5746 66.7902 89.9684 67.7381 89.9684 68.7263C89.9684 69.7146 89.5746 70.6624 88.8738 71.3613C88.1729 72.0601 87.2223 72.4527 86.2311 72.4527C85.24 72.4527 84.2894 72.0601 83.5885 71.3613C82.8877 70.6624 82.4939 69.7146 82.4939 68.7263C82.4939 67.7381 82.8877 66.7902 83.5885 66.0914C84.2894 65.3926 85.24 65 86.2311 65Z" fill="#545454"/>
<path d="M64.5913 75.0262C62.9329 75.0262 61.6132 76.4585 62.1037 78.0422C64.054 84.3886 69.9869 89 76.9942 89C84.0014 89 89.9343 84.3886 91.8963 78.0422C92.3868 76.4702 91.0671 75.0262 89.4087 75.0262H64.5913Z" fill="#545454"/>
<path d="M85.7014 187.183C89.4483 199.459 103.387 206.321 113.862 209.372C117.766 210.509 120.553 214.226 119.995 218.253L119.614 221.008C119.072 224.928 115.541 227.758 111.616 227.249C49.6995 219.215 25.0213 177.708 38.6367 166.775C48.2532 159.053 60.2578 167.218 67.2443 174.481C67.8343 175.094 69.2348 174.322 69.0501 173.492C67.8621 168.147 67.7731 161.792 72.7586 161.106C80.9949 159.972 79.8183 167.909 85.7014 187.183Z" fill="url(#paint4_linear_597_9823)"/>
<path d="M155.207 133.958C164.067 110.014 197.933 110.014 206.793 133.958C209.579 141.486 215.514 147.421 223.042 150.207C246.986 159.067 246.986 192.933 223.042 201.793C215.514 204.579 209.579 210.514 206.793 218.042C197.933 241.986 164.067 241.986 155.207 218.042C152.421 210.514 146.486 204.579 138.958 201.793C115.014 192.933 115.014 159.067 138.958 150.207C146.486 147.421 152.421 141.486 155.207 133.958Z" fill="url(#paint5_linear_597_9823)"/>
<path d="M165 121.71C178.678 111.179 201.09 115.215 208.072 133.817C210.876 141.286 216.849 147.174 224.425 149.938C233.007 153.069 238.531 159.347 241 166.53C235.549 168.137 229.773 169 223.792 169C194.776 169 170.571 148.694 165 121.71Z" fill="white" fill-opacity="0.1"/>
<path d="M180.99 181.312C176.649 181.312 173.614 179.239 171.84 177.296H171.863C170.813 176.134 169.051 176.063 167.907 177.13C166.763 178.196 166.693 179.997 167.743 181.147C170.299 183.979 174.746 187 181.002 187C187.258 187 191.693 183.967 194.261 181.147C195.311 179.997 195.229 178.196 194.097 177.13C192.965 176.063 191.191 176.146 190.141 177.296C188.367 179.239 185.332 181.312 180.99 181.312Z" fill="#00468B"/>
<path d="M169.059 166.111C168.359 166.822 167.965 167.786 167.965 168.792C167.965 169.797 168.359 170.762 169.059 171.473C169.759 172.184 170.709 172.583 171.7 172.583C172.691 172.583 173.64 172.184 174.341 171.473C175.041 170.762 175.435 169.797 175.435 168.792C175.435 167.786 175.041 166.822 174.341 166.111C173.64 165.399 172.691 165 171.7 165C170.709 165 169.759 165.399 169.059 166.111Z" fill="#00468B"/>
<path d="M193.015 166.111C192.315 165.399 191.365 165 190.374 165C189.384 165 188.434 165.399 187.733 166.111C187.033 166.822 186.639 167.786 186.639 168.792C186.639 169.797 187.033 170.762 187.733 171.473C188.434 172.184 189.384 172.583 190.374 172.583C191.365 172.583 192.315 172.184 193.015 171.473C193.715 170.762 194.109 169.797 194.109 168.792C194.109 167.786 193.715 166.822 193.015 166.111Z" fill="#00468B"/>
<defs>
<linearGradient id="paint0_linear_597_9823" x1="139" y1="38.4444" x2="282.361" y2="67.7922" gradientUnits="userSpaceOnUse">
<stop stop-color="#FFCC00"/>
<stop offset="1" stop-color="#FF7700"/>
</linearGradient>
<linearGradient id="paint1_linear_597_9823" x1="139" y1="17.9722" x2="303.12" y2="93.1007" gradientUnits="userSpaceOnUse">
<stop stop-color="#FBFF00"/>
<stop offset="1" stop-color="#FF7700"/>
</linearGradient>
<linearGradient id="paint2_linear_597_9823" x1="17" y1="16" x2="73.3722" y2="269.725" gradientUnits="userSpaceOnUse">
<stop stop-color="#FFCC00"/>
<stop offset="1" stop-color="#FF7700"/>
</linearGradient>
<linearGradient id="paint3_linear_597_9823" x1="17" y1="16" x2="73.3722" y2="269.725" gradientUnits="userSpaceOnUse">
<stop stop-color="#FBFF00"/>
<stop offset="1" stop-color="#FF7700"/>
</linearGradient>
<linearGradient id="paint4_linear_597_9823" x1="151.994" y1="243.354" x2="14.631" y2="160.977" gradientUnits="userSpaceOnUse">
<stop stop-color="#0080FF"/>
<stop offset="1" stop-color="#00D5FF"/>
</linearGradient>
<linearGradient id="paint5_linear_597_9823" x1="181" y1="116" x2="181" y2="259.151" gradientUnits="userSpaceOnUse">
<stop stop-color="#00D5FF"/>
<stop offset="1" stop-color="#0080FF"/>
</linearGradient>
</defs>
</svg>
