<svg width="322" height="315" viewBox="0 0 322 315" fill="none" xmlns="http://www.w3.org/2000/svg">
<path d="M219.055 89.6733C214.382 74.2939 197.007 65.6917 183.937 61.8627C179.048 60.4305 175.557 55.7755 176.253 50.7289L176.728 47.2768C177.406 42.3572 181.838 38.8055 186.762 39.4486C264.001 49.5361 294.784 101.556 277.795 115.26C265.801 124.934 250.832 114.719 242.11 105.619C241.371 104.848 239.61 105.814 239.841 106.857C241.32 113.553 241.425 121.508 235.208 122.367C224.929 123.789 226.397 113.839 219.055 89.6733Z" fill="url(#paint0_linear_597_9730)"/>
<path d="M219.055 89.6733C214.382 74.2939 197.007 65.6917 183.937 61.8627C179.048 60.4305 175.557 55.7755 176.253 50.7289L176.728 47.2768C177.406 42.3572 181.838 38.8055 186.762 39.4486C264.001 49.5361 294.784 101.556 277.795 115.26C265.801 124.934 250.832 114.719 242.11 105.619C241.371 104.848 239.61 105.814 239.841 106.857C241.32 113.553 241.425 121.508 235.208 122.367C224.929 123.789 226.397 113.839 219.055 89.6733Z" fill="url(#paint1_linear_597_9730)"/>
<path d="M71.606 38.0957C79.3629 13.4349 113.137 13.4349 120.894 38.0957C124.363 49.1244 134.312 56.5914 145.538 56.5914C170.64 56.5914 181.077 89.7723 160.769 105.014C151.687 111.83 147.887 123.911 151.356 134.94C159.113 159.601 131.789 180.108 111.481 164.867C102.399 158.051 90.1011 158.051 81.0192 164.867C60.7113 180.108 33.3874 159.601 41.1443 134.94C44.6133 123.911 40.813 111.83 31.7311 105.014C11.4233 89.7723 21.8601 56.5914 46.9619 56.5914C58.1878 56.5914 68.137 49.1244 71.606 38.0957Z" fill="url(#paint2_linear_597_9730)"/>
<path d="M71.606 38.0957C79.3629 13.4349 113.137 13.4349 120.894 38.0957C124.363 49.1244 134.312 56.5914 145.538 56.5914C170.64 56.5914 181.077 89.7723 160.769 105.014C151.687 111.83 147.887 123.911 151.356 134.94C159.113 159.601 131.789 180.108 111.481 164.867C102.399 158.051 90.1011 158.051 81.0192 164.867C60.7113 180.108 33.3874 159.601 41.1443 134.94C44.6133 123.911 40.813 111.83 31.7311 105.014C11.4233 89.7723 21.8601 56.5914 46.9619 56.5914C58.1878 56.5914 68.137 49.1244 71.606 38.0957Z" fill="url(#paint3_linear_597_9730)"/>
<path d="M71.6065 38.0952C78.7994 15.2279 108.362 13.5656 118.809 33.1072C107.387 63.1477 78.326 84.4957 44.2783 84.4957C36.2229 84.4957 28.4473 83.2984 21.1177 81.0762C22.2773 68.3459 32.0222 56.5909 46.9628 56.5909C58.1885 56.5908 68.1375 49.1238 71.6065 38.0952Z" fill="white" fill-opacity="0.2"/>
<path d="M79.7126 85.4438C79.7126 84.1965 80.2081 83.0002 81.0901 82.1182C81.9721 81.2362 83.1683 80.7407 84.4157 80.7407C85.663 80.7407 86.8593 81.2362 87.7413 82.1182C88.6233 83.0002 89.1188 84.1965 89.1188 85.4438C89.1188 86.6912 88.6233 87.8875 87.7413 88.7695C86.8593 89.6515 85.663 90.147 84.4157 90.147C83.1683 90.147 81.9721 89.6515 81.0901 88.7695C80.2081 87.8875 79.7126 86.6912 79.7126 85.4438ZM107.931 80.7407C109.179 80.7407 110.375 81.2362 111.257 82.1182C112.139 83.0002 112.634 84.1965 112.634 85.4438C112.634 86.6912 112.139 87.8875 111.257 88.7695C110.375 89.6515 109.179 90.147 107.931 90.147C106.684 90.147 105.488 89.6515 104.606 88.7695C103.724 87.8875 103.228 86.6912 103.228 85.4438C103.228 84.1965 103.724 83.0002 104.606 82.1182C105.488 81.2362 106.684 80.7407 107.931 80.7407Z" fill="#545454"/>
<path d="M80.6985 93.3951C78.6115 93.3951 76.9507 95.2028 77.568 97.2017C80.0224 105.212 87.4886 111.032 96.307 111.032C105.125 111.032 112.592 105.212 115.061 97.2017C115.678 95.2175 114.017 93.3951 111.93 93.3951H80.6985Z" fill="#545454"/>
<path d="M107.654 234.427C112.35 249.816 129.819 258.42 142.95 262.245C147.845 263.671 151.339 268.331 150.64 273.382L150.163 276.832C149.483 281.748 145.055 285.296 140.134 284.658C62.5246 274.585 31.592 222.547 48.6584 208.84C60.7119 199.159 75.7583 209.395 84.5162 218.5C85.2559 219.269 87.0124 218.301 86.7809 217.259C85.2921 210.559 85.1812 202.593 91.4299 201.733C101.754 200.311 100.279 210.262 107.654 234.427Z" fill="url(#paint4_linear_597_9730)"/>
<path d="M194.584 168.137C205.696 138.107 248.169 138.107 259.282 168.137C262.775 177.578 270.219 185.022 279.66 188.515C309.69 199.627 309.69 242.101 279.66 253.213C270.219 256.707 262.775 264.151 259.282 273.592C248.169 303.622 205.696 303.622 194.584 273.592C191.09 264.151 183.646 256.707 174.205 253.213C144.175 242.101 144.175 199.627 174.205 188.515C183.646 185.022 191.09 177.578 194.584 168.137Z" fill="url(#paint5_linear_597_9730)"/>
<path d="M205.603 152.833C222.648 139.521 250.579 144.622 259.281 168.137C262.774 177.578 270.218 185.022 279.659 188.515C290.354 192.473 297.239 200.41 300.315 209.49C293.522 211.52 286.324 212.611 278.87 212.611C242.71 212.611 212.545 186.943 205.603 152.833Z" fill="white" fill-opacity="0.1"/>
<path d="M225.738 226.989C220.27 226.989 216.449 224.417 214.215 222.006H214.244C212.922 220.566 210.702 220.478 209.262 221.8C207.822 223.123 207.734 225.357 209.056 226.783C212.275 230.295 217.875 234.043 225.752 234.043C233.63 234.043 239.215 230.281 242.449 226.783C243.771 225.357 243.668 223.123 242.243 221.8C240.817 220.478 238.583 220.581 237.26 222.006C235.026 224.417 231.205 226.989 225.738 226.989Z" fill="#00468B"/>
<path d="M210.713 208.132C209.831 209.014 209.336 210.211 209.336 211.458C209.336 212.705 209.831 213.902 210.713 214.784C211.595 215.666 212.791 216.161 214.039 216.161C215.286 216.161 216.482 215.666 217.364 214.784C218.246 213.902 218.742 212.705 218.742 211.458C218.742 210.211 218.246 209.014 217.364 208.132C216.482 207.25 215.286 206.755 214.039 206.755C212.791 206.755 211.595 207.25 210.713 208.132Z" fill="#00468B"/>
<path d="M240.88 208.132C239.998 207.25 238.802 206.755 237.554 206.755C236.307 206.755 235.111 207.25 234.229 208.132C233.347 209.014 232.851 210.211 232.851 211.458C232.851 212.705 233.347 213.902 234.229 214.784C235.111 215.666 236.307 216.161 237.554 216.161C238.802 216.161 239.998 215.666 240.88 214.784C241.762 213.902 242.257 212.705 242.257 211.458C242.257 210.211 241.762 209.014 240.88 208.132Z" fill="#00468B"/>
<defs>
<linearGradient id="paint0_linear_597_9730" x1="175" y1="47.8333" x2="355.924" y2="85.1368" gradientUnits="userSpaceOnUse">
<stop stop-color="#FFCC00"/>
<stop offset="1" stop-color="#FF7700"/>
</linearGradient>
<linearGradient id="paint1_linear_597_9730" x1="175" y1="22.1667" x2="381.725" y2="117.479" gradientUnits="userSpaceOnUse">
<stop stop-color="#FBFF00"/>
<stop offset="1" stop-color="#FF7700"/>
</linearGradient>
<linearGradient id="paint2_linear_597_9730" x1="21" y1="19.6001" x2="91.7002" y2="337.814" gradientUnits="userSpaceOnUse">
<stop stop-color="#FFCC00"/>
<stop offset="1" stop-color="#FF7700"/>
</linearGradient>
<linearGradient id="paint3_linear_597_9730" x1="21" y1="19.6001" x2="91.7002" y2="337.814" gradientUnits="userSpaceOnUse">
<stop stop-color="#FBFF00"/>
<stop offset="1" stop-color="#FF7700"/>
</linearGradient>
<linearGradient id="paint4_linear_597_9730" x1="190.75" y1="304.85" x2="18.5499" y2="201.6" gradientUnits="userSpaceOnUse">
<stop stop-color="#0080FF"/>
<stop offset="1" stop-color="#00D5FF"/>
</linearGradient>
<linearGradient id="paint5_linear_597_9730" x1="226.933" y1="145.614" x2="226.933" y2="325.15" gradientUnits="userSpaceOnUse">
<stop stop-color="#00D5FF"/>
<stop offset="1" stop-color="#0080FF"/>
</linearGradient>
</defs>
</svg>
