<svg width="200" height="198" viewBox="0 0 200 198" fill="none" xmlns="http://www.w3.org/2000/svg">
<path d="M136.822 56.0444C133.907 46.449 123.068 41.0809 114.912 38.6905C111.858 37.7954 109.677 34.8872 110.112 31.7344L110.407 29.5922C110.83 26.5187 113.599 24.2998 116.675 24.7017C164.873 30.9989 184.081 63.4601 173.479 72.0121C165.996 78.0485 156.656 71.6765 151.213 65.9982C150.751 65.5168 149.651 66.1205 149.795 66.7718C150.717 70.9502 150.781 75.9112 146.903 76.4475C140.488 77.3346 141.404 71.125 136.822 56.0444Z" fill="url(#paint0_linear_438_2258)"/>
<path d="M136.822 56.0444C133.907 46.449 123.068 41.0809 114.912 38.6905C111.858 37.7954 109.677 34.8872 110.112 31.7344L110.407 29.5922C110.83 26.5187 113.599 24.2998 116.675 24.7017C164.873 30.9989 184.081 63.4601 173.479 72.0121C165.996 78.0485 156.656 71.6765 151.213 65.9982C150.751 65.5168 149.651 66.1205 149.795 66.7718C150.717 70.9502 150.781 75.9112 146.903 76.4475C140.488 77.3346 141.404 71.125 136.822 56.0444Z" fill="url(#paint1_linear_438_2258)"/>
<path d="M67.2568 146.456C70.1908 156.071 81.1047 161.446 89.3079 163.836C92.3662 164.727 94.5491 167.638 94.1126 170.793L93.8144 172.949C93.3895 176.02 90.6231 178.237 87.5485 177.838C39.0629 171.545 19.738 139.035 30.4001 130.471C37.9304 124.423 47.3306 130.818 52.8019 136.506C53.2641 136.987 54.3615 136.382 54.2169 135.731C53.2867 131.545 53.2174 126.569 57.1212 126.031C63.5712 125.143 62.6498 131.359 67.2568 146.456Z" fill="url(#paint2_linear_438_2258)"/>
<path d="M44.7348 23.7991C49.5809 8.39247 70.6811 8.39247 75.5272 23.7991C77.6944 30.6892 83.91 35.3541 90.9233 35.3541C106.605 35.3541 113.126 56.0837 100.439 65.6055C94.7648 69.8638 92.3906 77.4118 94.5579 84.3019C99.4039 99.7086 82.3335 112.52 69.6464 102.998C63.9725 98.74 56.2895 98.74 50.6156 102.998C37.9285 112.52 20.8581 99.7086 25.7041 84.3019C27.8713 77.4118 25.4972 69.8638 19.8233 65.6055C7.13617 56.0837 13.6565 35.3541 29.3387 35.3541C36.3519 35.3541 42.5676 30.6892 44.7348 23.7991Z" fill="url(#paint3_linear_438_2258)"/>
<path d="M44.7348 23.7991C49.5809 8.39247 70.6811 8.39247 75.5272 23.7991C77.6944 30.6892 83.91 35.3541 90.9233 35.3541C106.605 35.3541 113.126 56.0837 100.439 65.6055C94.7648 69.8638 92.3906 77.4118 94.5579 84.3019C99.4039 99.7086 82.3335 112.52 69.6464 102.998C63.9725 98.74 56.2895 98.74 50.6156 102.998C37.9285 112.52 20.8581 99.7086 25.7041 84.3019C27.8713 77.4118 25.4972 69.8638 19.8233 65.6055C7.13617 56.0837 13.6565 35.3541 29.3387 35.3541C36.3519 35.3541 42.5676 30.6892 44.7348 23.7991Z" fill="url(#paint4_linear_438_2258)"/>
<path d="M44.7368 23.7988C49.2306 9.51265 67.6998 8.47413 74.2261 20.6826C67.0907 39.4502 48.9348 52.7871 27.6638 52.7871C22.6312 52.7871 17.7734 52.0392 13.1943 50.6508C13.9188 42.6977 20.0069 35.3539 29.3408 35.3539C36.3541 35.3538 42.5696 30.6888 44.7368 23.7988Z" fill="white" fill-opacity="0.2"/>
<path d="M49.8012 53.3801C49.8012 52.6009 50.1108 51.8535 50.6618 51.3025C51.2128 50.7515 51.9602 50.4419 52.7395 50.4419C53.5187 50.4419 54.2661 50.7515 54.8171 51.3025C55.3681 51.8535 55.6777 52.6009 55.6777 53.3801C55.6777 54.1594 55.3681 54.9068 54.8171 55.4578C54.2661 56.0088 53.5187 56.3184 52.7395 56.3184C51.9602 56.3184 51.2128 56.0088 50.6618 55.4578C50.1108 54.9068 49.8012 54.1594 49.8012 53.3801ZM67.4307 50.4419C68.2099 50.4419 68.9573 50.7515 69.5083 51.3025C70.0593 51.8535 70.3689 52.6009 70.3689 53.3801C70.3689 54.1594 70.0593 54.9068 69.5083 55.4578C68.9573 56.0088 68.2099 56.3184 67.4307 56.3184C66.6514 56.3184 65.904 56.0088 65.353 55.4578C64.802 54.9068 64.4924 54.1594 64.4924 53.3801C64.4924 52.6009 64.802 51.8535 65.353 51.3025C65.904 50.7515 66.6514 50.4419 67.4307 50.4419Z" fill="#545454"/>
<path d="M50.4172 58.3476C49.1133 58.3476 48.0758 59.477 48.4614 60.7257C49.9948 65.7299 54.6593 69.366 60.1685 69.366C65.6777 69.366 70.3421 65.7299 71.8847 60.7257C72.2703 59.4862 71.2328 58.3476 69.9289 58.3476H50.4172Z" fill="#545454"/>
<path d="M121.564 105.042C128.506 86.2815 155.041 86.2815 161.983 105.042C164.166 110.941 168.816 115.591 174.715 117.774C193.476 124.716 193.476 151.251 174.715 158.193C168.816 160.376 164.166 165.026 161.983 170.925C155.041 189.686 128.506 189.686 121.564 170.925C119.381 165.026 114.731 160.376 108.832 158.193C90.0715 151.251 90.0715 124.716 108.832 117.774C114.731 115.591 119.381 110.941 121.564 105.042Z" fill="url(#paint5_linear_438_2258)"/>
<path d="M128.449 95.4819C139.098 87.1655 156.548 90.3524 161.984 105.043C164.166 110.941 168.817 115.592 174.715 117.774C181.397 120.247 185.698 125.205 187.62 130.878C183.376 132.146 178.879 132.828 174.222 132.828C151.632 132.828 132.786 116.792 128.449 95.4819Z" fill="white" fill-opacity="0.1"/>
<path d="M141.027 142.584C137.611 142.584 135.224 140.968 133.828 139.454H133.847C133.02 138.549 131.634 138.494 130.734 139.325C129.834 140.156 129.779 141.559 130.605 142.455C132.616 144.661 136.115 147.015 141.036 147.015C145.958 147.015 149.447 144.652 151.467 142.455C152.293 141.559 152.229 140.156 151.338 139.325C150.448 138.494 149.052 138.559 148.226 139.454C146.83 140.968 144.443 142.584 141.027 142.584Z" fill="#00468B"/>
<path d="M131.64 130.739C131.089 131.293 130.78 132.045 130.78 132.828C130.78 133.612 131.089 134.363 131.64 134.917C132.191 135.471 132.939 135.783 133.718 135.783C134.497 135.783 135.245 135.471 135.796 134.917C136.347 134.363 136.656 133.612 136.656 132.828C136.656 132.045 136.347 131.293 135.796 130.739C135.245 130.185 134.497 129.874 133.718 129.874C132.939 129.874 132.191 130.185 131.64 130.739Z" fill="#00468B"/>
<path d="M150.487 130.739C149.936 130.185 149.189 129.874 148.409 129.874C147.63 129.874 146.883 130.185 146.332 130.739C145.781 131.293 145.471 132.045 145.471 132.828C145.471 133.612 145.781 134.363 146.332 134.917C146.883 135.471 147.63 135.783 148.409 135.783C149.189 135.783 149.936 135.471 150.487 134.917C151.038 134.363 151.348 133.612 151.348 132.828C151.348 132.045 151.038 131.293 150.487 130.739Z" fill="#00468B"/>
<defs>
<linearGradient id="paint0_linear_438_2258" x1="109.329" y1="29.9336" x2="222.237" y2="53.2133" gradientUnits="userSpaceOnUse">
<stop stop-color="#FFCC00"/>
<stop offset="1" stop-color="#FF7700"/>
</linearGradient>
<linearGradient id="paint1_linear_438_2258" x1="109.329" y1="13.9159" x2="238.339" y2="73.3966" gradientUnits="userSpaceOnUse">
<stop stop-color="#FBFF00"/>
<stop offset="1" stop-color="#FF7700"/>
</linearGradient>
<linearGradient id="paint2_linear_438_2258" x1="119.171" y1="190.453" x2="11.59" y2="125.948" gradientUnits="userSpaceOnUse">
<stop stop-color="#0080FF"/>
<stop offset="1" stop-color="#00D5FF"/>
</linearGradient>
<linearGradient id="paint3_linear_438_2258" x1="13.1191" y1="12.2441" x2="57.2885" y2="211.046" gradientUnits="userSpaceOnUse">
<stop stop-color="#FFCC00"/>
<stop offset="1" stop-color="#FF7700"/>
</linearGradient>
<linearGradient id="paint4_linear_438_2258" x1="13.1191" y1="12.2441" x2="57.2885" y2="211.046" gradientUnits="userSpaceOnUse">
<stop stop-color="#FBFF00"/>
<stop offset="1" stop-color="#FF7700"/>
</linearGradient>
<linearGradient id="paint5_linear_438_2258" x1="141.774" y1="90.9717" x2="141.774" y2="203.135" gradientUnits="userSpaceOnUse">
<stop stop-color="#00D5FF"/>
<stop offset="1" stop-color="#0080FF"/>
</linearGradient>
</defs>
</svg>
