<svg width="300" height="300" viewBox="0 0 300 300" fill="none" xmlns="http://www.w3.org/2000/svg">
<path d="M66.4413 68.5471C68.3483 62.4843 76.6517 62.4843 78.5587 68.5471V68.5471C79.4115 71.2585 81.8575 73.0942 84.6173 73.0942V73.0942C90.7885 73.0942 93.3544 81.2516 88.3618 84.9987V84.9987C86.129 86.6744 85.1947 89.6447 86.0476 92.356V92.356C87.9546 98.4188 81.2371 103.46 76.2445 99.7134V99.7134C74.0117 98.0377 70.9883 98.0377 68.7555 99.7134V99.7134C63.7629 103.46 57.0454 98.4188 58.9524 92.356V92.356C59.8053 89.6447 58.871 86.6744 56.6382 84.9987V84.9987C51.6456 81.2516 54.2115 73.0942 60.3827 73.0942V73.0942C63.1425 73.0942 65.5885 71.2585 66.4413 68.5471V68.5471Z" fill="url(#paint0_linear_2531_13243)"/>
<path d="M66.4413 68.5471C68.3483 62.4843 76.6517 62.4843 78.5587 68.5471V68.5471C79.4115 71.2585 81.8575 73.0942 84.6173 73.0942V73.0942C90.7885 73.0942 93.3544 81.2516 88.3618 84.9987V84.9987C86.129 86.6744 85.1947 89.6447 86.0476 92.356V92.356C87.9546 98.4188 81.2371 103.46 76.2445 99.7134V99.7134C74.0117 98.0377 70.9883 98.0377 68.7555 99.7134V99.7134C63.7629 103.46 57.0454 98.4188 58.9524 92.356V92.356C59.8053 89.6447 58.871 86.6744 56.6382 84.9987V84.9987C51.6456 81.2516 54.2115 73.0942 60.3827 73.0942V73.0942C63.1425 73.0942 65.5885 71.2585 66.4413 68.5471V68.5471Z" fill="url(#paint1_linear_2531_13243)"/>
<path d="M66.4418 68.547C68.2102 62.9251 75.4782 62.5164 78.0464 67.3207C75.2385 74.7061 68.0938 79.9544 59.7233 79.9544C57.7429 79.9544 55.8313 79.6601 54.0293 79.1137C54.3144 75.984 56.7101 73.0941 60.3832 73.0941C63.1431 73.0941 65.589 71.2583 66.4418 68.547Z" fill="white" fill-opacity="0.2"/>
<path d="M232.441 192.547C234.348 186.484 242.652 186.484 244.559 192.547V192.547C245.412 195.258 247.857 197.094 250.617 197.094V197.094C256.789 197.094 259.354 205.252 254.362 208.999V208.999C252.129 210.674 251.195 213.645 252.048 216.356V216.356C253.955 222.419 247.237 227.46 242.244 223.713V223.713C240.012 222.038 236.988 222.038 234.756 223.713V223.713C229.763 227.46 223.045 222.419 224.952 216.356V216.356C225.805 213.645 224.871 210.674 222.638 208.999V208.999C217.646 205.252 220.211 197.094 226.383 197.094V197.094C229.143 197.094 231.588 195.258 232.441 192.547V192.547Z" fill="url(#paint2_linear_2531_13243)"/>
<path d="M232.441 192.547C234.348 186.484 242.652 186.484 244.559 192.547V192.547C245.412 195.258 247.857 197.094 250.617 197.094V197.094C256.789 197.094 259.354 205.252 254.362 208.999V208.999C252.129 210.674 251.195 213.645 252.048 216.356V216.356C253.955 222.419 247.237 227.46 242.244 223.713V223.713C240.012 222.038 236.988 222.038 234.756 223.713V223.713C229.763 227.46 223.045 222.419 224.952 216.356V216.356C225.805 213.645 224.871 210.674 222.638 208.999V208.999C217.646 205.252 220.211 197.094 226.383 197.094V197.094C229.143 197.094 231.588 195.258 232.441 192.547V192.547Z" fill="url(#paint3_linear_2531_13243)"/>
<path d="M232.442 192.547C234.21 186.925 241.478 186.516 244.046 191.321C241.238 198.706 234.094 203.954 225.723 203.954C223.743 203.954 221.831 203.66 220.029 203.114C220.314 199.984 222.71 197.094 226.383 197.094C229.143 197.094 231.589 195.258 232.442 192.547Z" fill="white" fill-opacity="0.2"/>
<path d="M122.429 96.0655C130.006 71.9782 162.994 71.9782 170.571 96.0655V96.0655C173.959 106.838 183.677 114.131 194.642 114.131V114.131C219.16 114.131 229.354 146.54 209.518 161.427V161.427C200.648 168.085 196.936 179.886 200.324 190.658V190.658C207.901 214.745 181.212 234.775 161.377 219.888V219.888C152.506 213.231 140.494 213.231 131.623 219.888V219.888C111.788 234.775 85.0993 214.745 92.6758 190.658V190.658C96.0641 179.886 92.3523 168.085 83.4815 161.427V161.427C63.646 146.54 73.8401 114.131 98.3582 114.131V114.131C109.323 114.131 119.041 106.838 122.429 96.0655V96.0655Z" fill="url(#paint4_linear_2531_13243)"/>
<path d="M122.429 96.0655C130.006 71.9782 162.994 71.9782 170.571 96.0655V96.0655C173.959 106.838 183.677 114.131 194.642 114.131V114.131C219.16 114.131 229.354 146.54 209.518 161.427V161.427C200.648 168.085 196.936 179.886 200.324 190.658V190.658C207.901 214.745 181.212 234.775 161.377 219.888V219.888C152.506 213.231 140.494 213.231 131.623 219.888V219.888C111.788 234.775 85.0993 214.745 92.6758 190.658V190.658C96.0641 179.886 92.3523 168.085 83.4815 161.427V161.427C63.646 146.54 73.8401 114.131 98.3582 114.131V114.131C109.323 114.131 119.041 106.838 122.429 96.0655V96.0655Z" fill="url(#paint5_linear_2531_13243)"/>
<path d="M122.43 96.065C129.456 73.7295 158.331 72.1058 168.534 91.193C157.379 120.535 128.993 141.386 95.7372 141.386C87.8692 141.386 80.2744 140.217 73.1152 138.046C74.2479 125.612 83.7662 114.131 98.3593 114.131C109.324 114.13 119.042 106.837 122.43 96.065Z" fill="white" fill-opacity="0.2"/>
<path d="M130.347 142.312C130.347 141.094 130.831 139.926 131.693 139.064C132.554 138.203 133.723 137.719 134.941 137.719C136.159 137.719 137.328 138.203 138.189 139.064C139.051 139.926 139.535 141.094 139.535 142.312C139.535 143.531 139.051 144.699 138.189 145.561C137.328 146.422 136.159 146.906 134.941 146.906C133.723 146.906 132.554 146.422 131.693 145.561C130.831 144.699 130.347 143.531 130.347 142.312ZM157.91 137.719C159.128 137.719 160.296 138.203 161.158 139.064C162.019 139.926 162.503 141.094 162.503 142.312C162.503 143.531 162.019 144.699 161.158 145.561C160.296 146.422 159.128 146.906 157.91 146.906C156.691 146.906 155.523 146.422 154.661 145.561C153.8 144.699 153.316 143.531 153.316 142.312C153.316 141.094 153.8 139.926 154.661 139.064C155.523 138.203 156.691 137.719 157.91 137.719Z" fill="#545454"/>
<path d="M131.31 150.079C129.272 150.079 127.65 151.845 128.252 153.797C130.65 161.621 137.942 167.305 146.556 167.305C155.169 167.305 162.462 161.621 164.873 153.797C165.476 151.859 163.854 150.079 161.816 150.079H131.31Z" fill="#545454"/>
<defs>
<linearGradient id="paint0_linear_2531_13243" x1="54" y1="64" x2="71.3814" y2="142.232" gradientUnits="userSpaceOnUse">
<stop stop-color="#FFCC00"/>
<stop offset="1" stop-color="#FF7700"/>
</linearGradient>
<linearGradient id="paint1_linear_2531_13243" x1="54" y1="64" x2="71.3814" y2="142.232" gradientUnits="userSpaceOnUse">
<stop stop-color="#FBFF00"/>
<stop offset="1" stop-color="#FF7700"/>
</linearGradient>
<linearGradient id="paint2_linear_2531_13243" x1="220" y1="188" x2="237.381" y2="266.232" gradientUnits="userSpaceOnUse">
<stop stop-color="#FFCC00"/>
<stop offset="1" stop-color="#FF7700"/>
</linearGradient>
<linearGradient id="paint3_linear_2531_13243" x1="220" y1="188" x2="237.381" y2="266.232" gradientUnits="userSpaceOnUse">
<stop stop-color="#FBFF00"/>
<stop offset="1" stop-color="#FF7700"/>
</linearGradient>
<linearGradient id="paint4_linear_2531_13243" x1="73" y1="78" x2="142.056" y2="388.814" gradientUnits="userSpaceOnUse">
<stop stop-color="#FFCC00"/>
<stop offset="1" stop-color="#FF7700"/>
</linearGradient>
<linearGradient id="paint5_linear_2531_13243" x1="73" y1="78" x2="142.056" y2="388.814" gradientUnits="userSpaceOnUse">
<stop stop-color="#FBFF00"/>
<stop offset="1" stop-color="#FF7700"/>
</linearGradient>
</defs>
</svg>
