<svg width="300" height="300" viewBox="0 0 300 300" fill="none" xmlns="http://www.w3.org/2000/svg">
<path d="M230.547 193.537C233.279 186.154 243.721 186.154 246.453 193.537C247.312 195.858 249.142 197.688 251.463 198.547C258.846 201.279 258.846 211.721 251.463 214.453C249.142 215.312 247.312 217.142 246.453 219.463C243.721 226.846 233.279 226.846 230.547 219.463C229.688 217.142 227.858 215.312 225.537 214.453C218.154 211.721 218.154 201.279 225.537 198.547C227.858 197.688 229.688 195.858 230.547 193.537Z" fill="url(#paint0_linear_771_15216)"/>
<path d="M233.257 189.774C237.447 186.502 244.314 187.756 246.453 193.537C247.312 195.858 249.142 197.688 251.463 198.547C254.093 199.52 255.785 201.471 256.542 203.703C254.872 204.203 253.102 204.471 251.269 204.471C242.379 204.471 234.964 198.16 233.257 189.774Z" fill="white" fill-opacity="0.1"/>
<path d="M64.5471 68.5371C67.279 61.1543 77.721 61.1543 80.4529 68.5371C81.3118 70.8582 83.1418 72.6882 85.4629 73.5471C92.8457 76.279 92.8457 86.721 85.4629 89.4529C83.1418 90.3118 81.3118 92.1418 80.4529 94.4629C77.721 101.846 67.279 101.846 64.5471 94.4629C63.6882 92.1418 61.8582 90.3118 59.5371 89.4529C52.1543 86.721 52.1543 76.279 59.5371 73.5471C61.8582 72.6882 63.6882 70.8582 64.5471 68.5371Z" fill="url(#paint1_linear_771_15216)"/>
<path d="M67.2568 64.7745C71.4473 61.5018 78.3141 62.7559 80.4533 68.537C81.3122 70.8581 83.1422 72.6881 85.4633 73.5469C88.0926 74.5199 89.7852 76.4711 90.5416 78.7034C88.8715 79.2026 87.1018 79.4709 85.2693 79.4709C76.3795 79.4709 68.9636 73.1604 67.2568 64.7745Z" fill="white" fill-opacity="0.1"/>
<path d="M117.903 97.9986C128.757 68.6671 170.243 68.6671 181.097 97.9986C184.509 107.22 191.78 114.491 201.001 117.903C230.333 128.757 230.333 170.243 201.001 181.097C191.78 184.509 184.509 191.78 181.097 201.001C170.243 230.333 128.757 230.333 117.903 201.001C114.491 191.78 107.22 184.509 97.9986 181.097C68.6671 170.243 68.6671 128.757 97.9986 117.903C107.22 114.491 114.491 107.22 117.903 97.9986Z" fill="url(#paint2_linear_771_15216)"/>
<path d="M128.667 83.05C145.316 70.0478 172.597 75.0303 181.096 97.9983C184.509 107.22 191.779 114.49 201.001 117.903C211.447 121.768 218.171 129.52 221.177 138.389C214.542 140.372 207.51 141.438 200.23 141.438C164.911 141.438 135.448 116.367 128.667 83.05Z" fill="white" fill-opacity="0.1"/>
<path d="M148.333 155.482C142.993 155.482 139.26 152.97 137.078 150.615H137.107C135.815 149.209 133.647 149.122 132.24 150.414C130.834 151.706 130.747 153.888 132.039 155.281C135.183 158.712 140.653 162.373 148.347 162.373C156.042 162.373 161.497 158.698 164.655 155.281C165.947 153.888 165.847 151.706 164.454 150.414C163.062 149.122 160.88 149.223 159.588 150.615C157.406 152.97 153.673 155.482 148.333 155.482Z" fill="#00468B"/>
<path d="M133.658 137.064C132.796 137.926 132.312 139.094 132.312 140.313C132.312 141.531 132.796 142.699 133.658 143.561C134.519 144.422 135.688 144.906 136.906 144.906C138.124 144.906 139.293 144.422 140.154 143.561C141.016 142.699 141.5 141.531 141.5 140.313C141.5 139.094 141.016 137.926 140.154 137.064C139.293 136.203 138.124 135.719 136.906 135.719C135.688 135.719 134.519 136.203 133.658 137.064Z" fill="#00468B"/>
<path d="M163.123 137.064C162.261 136.203 161.093 135.719 159.875 135.719C158.656 135.719 157.488 136.203 156.626 137.064C155.765 137.926 155.281 139.094 155.281 140.313C155.281 141.531 155.765 142.699 156.626 143.561C157.488 144.422 158.656 144.906 159.875 144.906C161.093 144.906 162.261 144.422 163.123 143.561C163.984 142.699 164.468 141.531 164.468 140.313C164.468 139.094 163.984 137.926 163.123 137.064Z" fill="#00468B"/>
<defs>
<linearGradient id="paint0_linear_771_15216" x1="238.5" y1="188" x2="238.5" y2="232.138" gradientUnits="userSpaceOnUse">
<stop stop-color="#00D5FF"/>
<stop offset="1" stop-color="#0080FF"/>
</linearGradient>
<linearGradient id="paint1_linear_771_15216" x1="72.5" y1="63" x2="72.5" y2="107.138" gradientUnits="userSpaceOnUse">
<stop stop-color="#00D5FF"/>
<stop offset="1" stop-color="#0080FF"/>
</linearGradient>
<linearGradient id="paint2_linear_771_15216" x1="149.5" y1="76" x2="149.5" y2="251.36" gradientUnits="userSpaceOnUse">
<stop stop-color="#00D5FF"/>
<stop offset="1" stop-color="#0080FF"/>
</linearGradient>
</defs>
</svg>
