<svg width="24" height="24" viewBox="0 0 24 24" fill="none" xmlns="http://www.w3.org/2000/svg">
<path d="M3 1H12H21C22.1046 1 23 1.89543 23 3V17C23 18.1046 22.1046 19 21 19H16.9613C16.3537 19 15.7791 19.2762 15.3995 19.7506L13.5617 22.0478C12.7611 23.0486 11.2389 23.0486 10.4383 22.0478L8.60049 19.7506C8.22094 19.2762 7.64632 19 7.03875 19H3C1.89543 19 1 18.1046 1 17V3C1 1.89543 1.89543 1 3 1Z" stroke="#B3B3B3" stroke-width="2" stroke-linejoin="round"/>
<path d="M10.4896 6.67354C10.7871 5.80269 11.9904 5.77631 12.3432 6.59441L12.3731 6.67403L12.7747 7.84844C12.8667 8.11777 13.0154 8.36424 13.2108 8.57121C13.4062 8.77818 13.6437 8.94084 13.9073 9.04823L14.0153 9.08853L15.1897 9.48962C16.0605 9.78721 16.0869 10.9905 15.2693 11.3433L15.1897 11.3732L14.0153 11.7747C13.7458 11.8667 13.4993 12.0154 13.2922 12.2108C13.0852 12.4062 12.9224 12.6437 12.815 12.9073L12.7747 13.0148L12.3736 14.1897C12.076 15.0606 10.8727 15.087 10.5204 14.2694L10.4896 14.1897L10.0885 13.0153C9.9965 12.7459 9.84781 12.4993 9.65242 12.2923C9.45704 12.0852 9.21951 11.9225 8.95587 11.815L8.84838 11.7747L7.67398 11.3736C6.80263 11.0761 6.77625 9.8728 7.59436 9.52048L7.67398 9.48962L8.84838 9.08853C9.11772 8.9965 9.36418 8.84778 9.57115 8.6524C9.77812 8.45701 9.94079 8.21952 10.0482 7.95593L10.0885 7.84844L10.4896 6.67354Z" fill="#B3B3B3"/>
<path d="M16.7569 5.07538C16.6779 5.02611 16.5866 5 16.4935 5C16.3897 4.99994 16.2884 5.03239 16.2038 5.09281C16.1193 5.15322 16.0558 5.23858 16.0223 5.3369L15.8481 5.84796L15.3376 6.02213L15.2788 6.04602C15.1903 6.08934 15.1167 6.15796 15.0672 6.24318C15.0178 6.32841 14.9947 6.42639 15.001 6.52473C15.0073 6.62306 15.0426 6.71731 15.1026 6.79554C15.1625 6.87377 15.2443 6.93245 15.3376 6.96414L15.8486 7.13831L16.0228 7.64888L16.0467 7.7071C16.09 7.79562 16.1585 7.86929 16.2437 7.91879C16.3289 7.96828 16.4269 7.99138 16.5252 7.98514C16.6235 7.97891 16.7178 7.94362 16.7961 7.88376C16.8743 7.8239 16.933 7.74215 16.9648 7.64888L17.139 7.13782L17.6495 6.96365L17.7083 6.93976C17.7968 6.89644 17.8704 6.82782 17.9199 6.74259C17.9693 6.65737 17.9924 6.55938 17.9861 6.46105C17.9798 6.36272 17.9444 6.26847 17.8845 6.19024C17.8246 6.11201 17.7428 6.05333 17.6495 6.02163L17.1385 5.84746L16.9643 5.3369L16.9404 5.27867C16.8995 5.19507 16.8359 5.12464 16.7569 5.07538Z" fill="#B3B3B3"/>
</svg>
