<svg width="30" height="30" viewBox="0 0 30 30" fill="none" xmlns="http://www.w3.org/2000/svg">
<path d="M6 4H15H24C25.1046 4 26 4.89543 26 6V20C26 21.1046 25.1046 22 24 22H19.9613C19.3537 22 18.7791 22.2762 18.3995 22.7506L16.5617 25.0478C15.7611 26.0486 14.2389 26.0486 13.4383 25.0478L11.6005 22.7506C11.2209 22.2762 10.6463 22 10.0388 22H6C4.89543 22 4 21.1046 4 20V6C4 4.89543 4.89543 4 6 4Z" stroke="#009DFF" stroke-width="2" stroke-linejoin="round"/>
<path d="M13.4896 9.67354C13.7871 8.80269 14.9904 8.77631 15.3432 9.59441L15.3731 9.67403L15.7747 10.8484C15.8667 11.1178 16.0154 11.3642 16.2108 11.5712C16.4062 11.7782 16.6437 11.9408 16.9073 12.0482L17.0153 12.0885L18.1897 12.4896C19.0605 12.7872 19.0869 13.9905 18.2693 14.3433L18.1897 14.3732L17.0153 14.7747C16.7458 14.8667 16.4993 15.0154 16.2922 15.2108C16.0852 15.4062 15.9224 15.6437 15.815 15.9073L15.7747 16.0148L15.3736 17.1897C15.076 18.0606 13.8727 18.087 13.5204 17.2694L13.4896 17.1897L13.0885 16.0153C12.9965 15.7459 12.8478 15.4993 12.6524 15.2923C12.457 15.0852 12.2195 14.9225 11.9559 14.815L11.8484 14.7747L10.674 14.3736C9.80263 14.0761 9.77625 12.8728 10.5944 12.5205L10.674 12.4896L11.8484 12.0885C12.1177 11.9965 12.3642 11.8478 12.5712 11.6524C12.7781 11.457 12.9408 11.2195 13.0482 10.9559L13.0885 10.8484L13.4896 9.67354Z" fill="#009DFF"/>
<path d="M19.7569 8.07538C19.6779 8.02611 19.5866 8 19.4935 8C19.3897 7.99994 19.2884 8.03239 19.2038 8.09281C19.1193 8.15322 19.0558 8.23858 19.0223 8.3369L18.8481 8.84796L18.3376 9.02213L18.2788 9.04602C18.1903 9.08934 18.1167 9.15796 18.0672 9.24318C18.0178 9.32841 17.9947 9.42639 18.001 9.52473C18.0073 9.62306 18.0426 9.71731 18.1026 9.79554C18.1625 9.87377 18.2443 9.93245 18.3376 9.96414L18.8486 10.1383L19.0228 10.6489L19.0467 10.7071C19.09 10.7956 19.1585 10.8693 19.2437 10.9188C19.3289 10.9683 19.4269 10.9914 19.5252 10.9851C19.6235 10.9789 19.7178 10.9436 19.7961 10.8838C19.8743 10.8239 19.933 10.7422 19.9648 10.6489L20.139 10.1378L20.6495 9.96365L20.7083 9.93976C20.7968 9.89644 20.8704 9.82782 20.9199 9.74259C20.9693 9.65737 20.9924 9.55938 20.9861 9.46105C20.9798 9.36272 20.9444 9.26847 20.8845 9.19024C20.8246 9.11201 20.7428 9.05333 20.6495 9.02163L20.1385 8.84746L19.9643 8.3369L19.9404 8.27867C19.8995 8.19507 19.8359 8.12464 19.7569 8.07538Z" fill="#009DFF"/>
</svg>
