<svg width="30" height="30" viewBox="0 0 30 30" fill="none" xmlns="http://www.w3.org/2000/svg">
<path d="M12.5 4L11.5 7M17.5 4L18.5 7" stroke="#B3B3B3" stroke-width="1.5" stroke-linecap="round" stroke-linejoin="round"/>
<path d="M2 10.0001C5 10.0001 7.55662 6.50003 9 4.00004H15L21 4.00003C22.4434 6.50002 25 10.0001 28 10.0001" stroke="#B3B3B3" stroke-width="2" stroke-linecap="round" stroke-linejoin="round"/>
<path d="M24 9H6C5.44772 9 5 9.44772 5 10V23C5 24.6569 6.34315 26 8 26H10C10.5523 26 11 25.5523 11 25V16.4375C11 15.8507 11.4477 15.375 12 15.375H18C18.5523 15.375 19 15.8507 19 16.4375V25C19 25.5523 19.4477 26 20 26H22C23.6569 26 25 24.6569 25 23V10C25 9.44772 24.5523 9 24 9Z" stroke="#B3B3B3" stroke-width="2"/>
</svg>
