<svg width="393" height="38" viewBox="0 0 393 38" fill="none" xmlns="http://www.w3.org/2000/svg">
<path d="M141.725 10.4579C142.756 7.1807 147.244 7.1807 148.275 10.4579C148.736 11.9235 150.058 12.9158 151.55 12.9158C154.886 12.9158 156.273 17.3252 153.574 19.3506C152.367 20.2564 151.862 21.862 152.323 23.3276C153.354 26.6048 149.723 29.3299 147.024 27.3045C145.817 26.3987 144.183 26.3987 142.976 27.3045C140.277 29.3299 136.646 26.6048 137.677 23.3276C138.138 21.862 137.633 20.2564 136.426 19.3506C133.727 17.3252 135.114 12.9158 138.45 12.9158C139.942 12.9158 141.264 11.9235 141.725 10.4579Z" fill="url(#paint0_linear_658_12545)"/>
<path d="M141.725 10.4579C142.756 7.1807 147.244 7.1807 148.275 10.4579C148.736 11.9235 150.058 12.9158 151.55 12.9158C154.886 12.9158 156.273 17.3252 153.574 19.3506C152.367 20.2564 151.862 21.862 152.323 23.3276C153.354 26.6048 149.723 29.3299 147.024 27.3045C145.817 26.3987 144.183 26.3987 142.976 27.3045C140.277 29.3299 136.646 26.6048 137.677 23.3276C138.138 21.862 137.633 20.2564 136.426 19.3506C133.727 17.3252 135.114 12.9158 138.45 12.9158C139.942 12.9158 141.264 11.9235 141.725 10.4579Z" fill="url(#paint1_linear_658_12545)"/>
<path d="M141.726 10.4578C142.682 7.41898 146.611 7.19807 147.999 9.79497C146.481 13.7871 142.619 16.624 138.094 16.624C137.024 16.624 135.991 16.4649 135.017 16.1696C135.171 14.4778 136.466 12.9157 138.451 12.9157C139.943 12.9157 141.265 11.9234 141.726 10.4578Z" fill="white" fill-opacity="0.2"/>
<path d="M142.802 17.3135C142.802 17.1477 142.868 16.9887 142.985 16.8715C143.103 16.7543 143.262 16.6885 143.427 16.6885C143.593 16.6885 143.752 16.7543 143.869 16.8715C143.986 16.9887 144.052 17.1477 144.052 17.3135C144.052 17.4792 143.986 17.6382 143.869 17.7554C143.752 17.8726 143.593 17.9385 143.427 17.9385C143.262 17.9385 143.103 17.8726 142.985 17.7554C142.868 17.6382 142.802 17.4792 142.802 17.3135ZM146.552 16.6885C146.718 16.6885 146.877 16.7543 146.994 16.8715C147.111 16.9887 147.177 17.1477 147.177 17.3135C147.177 17.4792 147.111 17.6382 146.994 17.7554C146.877 17.8726 146.718 17.9385 146.552 17.9385C146.387 17.9385 146.228 17.8726 146.11 17.7554C145.993 17.6382 145.927 17.4792 145.927 17.3135C145.927 17.1477 145.993 16.9887 146.11 16.8715C146.228 16.7543 146.387 16.6885 146.552 16.6885Z" fill="#545454"/>
<path d="M142.933 18.3701C142.656 18.3701 142.435 18.6104 142.517 18.876C142.844 19.9404 143.836 20.7139 145.008 20.7139C146.179 20.7139 147.172 19.9404 147.5 18.876C147.582 18.6123 147.361 18.3701 147.084 18.3701H142.933Z" fill="#545454"/>
<path d="M242.701 10.993C244.178 7.00233 249.822 7.00233 251.299 10.993C251.763 12.2477 252.752 13.2369 254.007 13.7011C257.998 15.1778 257.998 20.8222 254.007 22.2989C252.752 22.7631 251.763 23.7523 251.299 25.007C249.822 28.9977 244.178 28.9977 242.701 25.007C242.237 23.7523 241.248 22.7631 239.993 22.2989C236.002 20.8222 236.002 15.1778 239.993 13.7011C241.248 13.2369 242.237 12.2477 242.701 10.993Z" fill="url(#paint2_linear_658_12545)"/>
<path d="M244.166 8.95918C246.431 7.19018 250.142 7.86807 251.299 10.993C251.763 12.2476 252.752 13.2368 254.007 13.7011C255.428 14.227 256.343 15.2817 256.752 16.4883C255.849 16.7581 254.893 16.9032 253.902 16.9032C249.097 16.9032 245.088 13.4921 244.166 8.95918Z" fill="white" fill-opacity="0.1"/>
<path d="M247.008 19.3156C246.282 19.3156 245.774 18.972 245.477 18.6499H245.481C245.305 18.4575 245.01 18.4457 244.819 18.6224C244.627 18.7992 244.616 19.0977 244.791 19.2881C245.219 19.7575 245.963 20.2583 247.01 20.2583C248.057 20.2583 248.799 19.7555 249.229 19.2881C249.405 19.0977 249.391 18.7992 249.202 18.6224C249.012 18.4457 248.715 18.4594 248.539 18.6499C248.243 18.972 247.735 19.3156 247.008 19.3156Z" fill="#00468B"/>
<path d="M244.947 16.8725C244.83 16.9904 244.764 17.1502 244.764 17.3169C244.764 17.4836 244.83 17.6434 244.947 17.7612C245.064 17.8791 245.223 17.9453 245.389 17.9453C245.555 17.9453 245.714 17.8791 245.831 17.7612C245.948 17.6434 246.014 17.4836 246.014 17.3169C246.014 17.1502 245.948 16.9904 245.831 16.8725C245.714 16.7547 245.555 16.6885 245.389 16.6885C245.223 16.6885 245.064 16.7547 244.947 16.8725Z" fill="#00468B"/>
<path d="M249.067 16.8728C248.95 16.7549 248.791 16.6887 248.625 16.6887C248.459 16.6887 248.3 16.7549 248.183 16.8728C248.066 16.9906 248 17.1505 248 17.3171C248 17.4838 248.066 17.6436 248.183 17.7615C248.3 17.8793 248.459 17.9455 248.625 17.9455C248.791 17.9455 248.95 17.8793 249.067 17.7615C249.184 17.6436 249.25 17.4838 249.25 17.3171C249.25 17.1505 249.184 16.9906 249.067 16.8728Z" fill="#00468B"/>
<path d="M173.626 10.77H176.506V25.35H173.626V10.77ZM165.742 25.44C164.686 25.44 163.834 25.302 163.186 25.026C162.55 24.75 162.058 24.39 161.71 23.946C161.362 23.49 161.128 22.98 161.008 22.416C160.9 21.84 160.846 21.258 160.846 20.67V15.45C160.846 14.862 160.9 14.286 161.008 13.722C161.128 13.146 161.362 12.636 161.71 12.192C162.058 11.748 162.55 11.388 163.186 11.112C163.834 10.836 164.686 10.698 165.742 10.698C166.798 10.698 167.644 10.836 168.28 11.112C168.928 11.388 169.426 11.748 169.774 12.192C170.122 12.636 170.35 13.146 170.458 13.722C170.578 14.286 170.638 14.862 170.638 15.45V20.67C170.638 21.258 170.578 21.84 170.458 22.416C170.35 22.98 170.122 23.49 169.774 23.946C169.426 24.39 168.928 24.75 168.28 25.026C167.644 25.302 166.798 25.44 165.742 25.44ZM165.742 12.714C165.514 12.714 165.28 12.744 165.04 12.804C164.8 12.864 164.578 12.972 164.374 13.128C164.182 13.284 164.02 13.5 163.888 13.776C163.768 14.052 163.708 14.412 163.708 14.856V21.264C163.708 21.708 163.768 22.068 163.888 22.344C164.02 22.62 164.182 22.836 164.374 22.992C164.578 23.148 164.8 23.256 165.04 23.316C165.28 23.376 165.514 23.406 165.742 23.406C165.97 23.406 166.204 23.376 166.444 23.316C166.684 23.256 166.9 23.148 167.092 22.992C167.296 22.836 167.458 22.62 167.578 22.344C167.71 22.068 167.776 21.708 167.776 21.264V14.856C167.776 14.412 167.71 14.052 167.578 13.776C167.458 13.5 167.296 13.284 167.092 13.128C166.9 12.972 166.684 12.864 166.444 12.804C166.204 12.744 165.97 12.714 165.742 12.714ZM178.792 17.412H195.19V19.518H178.792V17.412ZM194.182 23.226C194.158 23.946 193.936 24.504 193.516 24.9C193.096 25.308 192.556 25.602 191.896 25.782C191.236 25.974 190.492 26.088 189.664 26.124C188.836 26.16 188.002 26.178 187.162 26.178C186.286 26.178 185.41 26.16 184.534 26.124C183.67 26.088 182.89 25.974 182.194 25.782C181.498 25.602 180.928 25.314 180.484 24.918C180.052 24.522 179.83 23.958 179.818 23.226V20.526H194.182V23.226ZM187.162 24.09C187.834 24.09 188.428 24.084 188.944 24.072C189.46 24.072 189.892 24.036 190.24 23.964C190.588 23.892 190.852 23.778 191.032 23.622C191.212 23.454 191.302 23.214 191.302 22.902V22.596H182.698V22.902C182.698 23.214 182.806 23.454 183.022 23.622C183.238 23.778 183.538 23.892 183.922 23.964C184.318 24.036 184.786 24.072 185.326 24.072C185.878 24.084 186.49 24.09 187.162 24.09ZM183.778 16.422C183.25 16.422 182.74 16.392 182.248 16.332C181.756 16.26 181.318 16.122 180.934 15.918C180.562 15.714 180.262 15.426 180.034 15.054C179.806 14.67 179.692 14.172 179.692 13.56C179.692 12.96 179.806 12.468 180.034 12.084C180.262 11.7 180.562 11.4 180.934 11.184C181.318 10.956 181.756 10.8 182.248 10.716C182.74 10.632 183.25 10.59 183.778 10.59H190.204C190.732 10.59 191.242 10.632 191.734 10.716C192.226 10.8 192.658 10.956 193.03 11.184C193.414 11.4 193.72 11.7 193.948 12.084C194.176 12.468 194.29 12.96 194.29 13.56C194.29 14.172 194.176 14.67 193.948 15.054C193.72 15.426 193.414 15.714 193.03 15.918C192.658 16.122 192.226 16.26 191.734 16.332C191.242 16.392 190.732 16.422 190.204 16.422H183.778ZM190.384 14.316C191.068 14.316 191.41 14.058 191.41 13.542C191.41 13.242 191.32 13.026 191.14 12.894C190.96 12.762 190.708 12.696 190.384 12.696H183.598C183.274 12.696 183.022 12.762 182.842 12.894C182.662 13.026 182.572 13.242 182.572 13.542C182.572 14.058 182.914 14.316 183.598 14.316H190.384ZM199.852 19.5C199.504 19.5 199.15 19.47 198.79 19.41C198.442 19.338 198.124 19.212 197.836 19.032C197.548 18.852 197.314 18.594 197.134 18.258C196.954 17.922 196.864 17.484 196.864 16.944C196.864 16.428 196.954 16.008 197.134 15.684C197.326 15.348 197.566 15.084 197.854 14.892C198.142 14.7 198.46 14.568 198.808 14.496C199.168 14.412 199.522 14.37 199.87 14.37H203.83C204.178 14.37 204.526 14.412 204.874 14.496C205.234 14.568 205.558 14.7 205.846 14.892C206.134 15.084 206.368 15.348 206.548 15.684C206.728 16.008 206.818 16.428 206.818 16.944C206.818 17.484 206.728 17.922 206.548 18.258C206.368 18.594 206.134 18.852 205.846 19.032C205.558 19.212 205.234 19.338 204.874 19.41C204.526 19.47 204.178 19.5 203.83 19.5H199.852ZM197.764 20.526H208.6C208.996 20.526 209.356 20.562 209.68 20.634C210.016 20.694 210.304 20.814 210.544 20.994C210.784 21.162 210.97 21.402 211.102 21.714C211.234 22.014 211.3 22.398 211.3 22.866V25.998H208.42V23.766C208.42 23.322 208.342 23.022 208.186 22.866C208.042 22.71 207.718 22.632 207.214 22.632H197.764V20.526ZM208.42 10.77H211.3V13.83H213.586V15.936H211.3V19.716H208.42V10.77ZM196.414 11.328H200.428V9.942H203.308V11.328H207.304V13.434H196.414V11.328ZM203.398 17.538C203.782 17.538 203.974 17.34 203.974 16.944C203.974 16.572 203.782 16.386 203.398 16.386H200.284C199.9 16.386 199.708 16.572 199.708 16.944C199.708 17.34 199.9 17.538 200.284 17.538H203.398ZM219.742 26.178C219.214 26.178 218.704 26.136 218.212 26.052C217.72 25.98 217.282 25.836 216.898 25.62C216.526 25.404 216.226 25.104 215.998 24.72C215.77 24.336 215.656 23.838 215.656 23.226C215.656 22.626 215.77 22.134 215.998 21.75C216.226 21.354 216.526 21.042 216.898 20.814C217.282 20.574 217.72 20.406 218.212 20.31C218.704 20.214 219.214 20.166 219.742 20.166H225.322C225.85 20.166 226.36 20.214 226.852 20.31C227.344 20.406 227.776 20.574 228.148 20.814C228.532 21.042 228.838 21.354 229.066 21.75C229.294 22.134 229.408 22.626 229.408 23.226C229.408 23.838 229.294 24.336 229.066 24.72C228.838 25.104 228.532 25.404 228.148 25.62C227.776 25.836 227.344 25.98 226.852 26.052C226.36 26.136 225.85 26.178 225.322 26.178H219.742ZM224.458 10.77V12.804H217.744V15.522C217.744 15.906 217.816 16.17 217.96 16.314C218.104 16.458 218.38 16.53 218.788 16.53H224.638V18.636H218.194C217.51 18.636 216.946 18.6 216.502 18.528C216.07 18.456 215.734 18.312 215.494 18.096C215.254 17.868 215.086 17.556 214.99 17.16C214.906 16.764 214.864 16.242 214.864 15.594V10.77H224.458ZM226.42 10.77H229.3V13.83H231.586V15.936H229.3V19.356H226.42V10.77ZM225.502 24.072C225.85 24.072 226.108 24 226.276 23.856C226.444 23.7 226.528 23.484 226.528 23.208C226.528 22.908 226.438 22.68 226.258 22.524C226.078 22.356 225.826 22.272 225.502 22.272H219.562C219.238 22.272 218.986 22.356 218.806 22.524C218.626 22.68 218.536 22.908 218.536 23.208C218.536 23.484 218.62 23.7 218.788 23.856C218.956 24 219.214 24.072 219.562 24.072H225.502Z" fill="#00468B"/>
<defs>
<linearGradient id="paint0_linear_658_12545" x1="135" y1="8" x2="144.395" y2="50.2876" gradientUnits="userSpaceOnUse">
<stop stop-color="#FFCC00"/>
<stop offset="1" stop-color="#FF7700"/>
</linearGradient>
<linearGradient id="paint1_linear_658_12545" x1="135" y1="8" x2="144.395" y2="50.2876" gradientUnits="userSpaceOnUse">
<stop stop-color="#FBFF00"/>
<stop offset="1" stop-color="#FF7700"/>
</linearGradient>
<linearGradient id="paint2_linear_658_12545" x1="247" y1="8" x2="247" y2="31.8586" gradientUnits="userSpaceOnUse">
<stop stop-color="#00D5FF"/>
<stop offset="1" stop-color="#0080FF"/>
</linearGradient>
</defs>
</svg>
