<svg width="20" height="20" viewBox="0 0 20 20" fill="none" xmlns="http://www.w3.org/2000/svg">
<path d="M4.63736 7.13743L5.88394 10.2167M5.88394 10.2167L7.57354 14.3902L9.08282 10.1961M5.88394 10.2167L4.11537 10.228M5.88394 10.2167L9.08282 10.1961M9.08282 10.1961L9.85725 8.04402L10.6281 10.1861M9.08282 10.1961L10.6281 10.1861M10.6281 10.1861L12.1409 14.3902L13.8513 10.1654M10.6281 10.1861L13.8513 10.1654M13.8513 10.1654L15.0771 7.13743M13.8513 10.1654L15.5989 10.1541M9.85726 17.7143C14.1968 17.7143 17.7144 14.1967 17.7144 9.85717C17.7144 5.51767 14.1968 2.00003 9.85726 2.00003C5.51776 2.00003 2.00012 5.51767 2.00012 9.85717C2.00012 14.1967 5.51776 17.7143 9.85726 17.7143Z" stroke="#545454" stroke-width="1.2381" stroke-linecap="round" stroke-linejoin="round"/>
</svg>
