<svg width="30" height="30" viewBox="0 0 30 30" fill="none" xmlns="http://www.w3.org/2000/svg">
<path d="M15.5 13.5C18.3995 13.5 20.75 11.1495 20.75 8.25C20.75 5.3505 18.3995 3 15.5 3C12.6005 3 10.25 5.3505 10.25 8.25C10.25 11.1495 12.6005 13.5 15.5 13.5Z" stroke="#009DFF" stroke-width="2"/>
<path d="M9.59152 16.6504H10.25H15.5H18.65H20.75H21.4085C22.2693 16.6504 23.0336 17.2013 23.3058 18.0179L24.6838 22.1517C25.3313 24.0943 23.8854 26.1004 21.8377 26.1004H9.16228C7.1146 26.1004 5.6687 24.0943 6.31623 22.1517L7.69415 18.0179C7.96638 17.2013 8.73066 16.6504 9.59152 16.6504Z" stroke="#009DFF" stroke-width="2" stroke-linecap="round" stroke-linejoin="round"/>
<path d="M20.0875 16.8359L12.8875 23.1359M11.6875 16.8359L15.5004 20.8497" stroke="#009DFF" stroke-width="2" stroke-linecap="round" stroke-linejoin="round"/>
</svg>
