<svg width="21" height="26" viewBox="0 0 21 26" fill="none" xmlns="http://www.w3.org/2000/svg">
<path d="M10.5 11.5C13.3995 11.5 15.75 9.14949 15.75 6.25C15.75 3.3505 13.3995 1 10.5 1C7.6005 1 5.25 3.3505 5.25 6.25C5.25 9.14949 7.6005 11.5 10.5 11.5Z" stroke="#B3B3B3" stroke-width="2"/>
<path d="M4.59152 14.6504H5.25H10.5H13.65H15.75H16.4085C17.2693 14.6504 18.0336 15.2013 18.3058 16.0179L19.6838 20.1517C20.3313 22.0943 18.8854 24.1004 16.8377 24.1004H4.16228C2.1146 24.1004 0.668696 22.0943 1.31623 20.1517L2.69415 16.0179C2.96638 15.2013 3.73066 14.6504 4.59152 14.6504Z" stroke="#B3B3B3" stroke-width="2" stroke-linecap="round" stroke-linejoin="round"/>
<path d="M15.0875 14.8359L7.8875 21.1359M6.6875 14.8359L10.5004 18.8497" stroke="#B3B3B3" stroke-width="2" stroke-linecap="round" stroke-linejoin="round"/>
</svg>
