<svg width="161" height="269" viewBox="0 0 161 269" fill="none" xmlns="http://www.w3.org/2000/svg">
<path d="M45.8942 132.094C57.7815 99.9688 103.218 99.9688 115.106 132.094C118.843 142.194 126.806 150.157 136.906 153.894C169.031 165.781 169.031 211.218 136.906 223.106C126.806 226.843 118.843 234.806 115.106 244.906C103.218 277.031 57.7815 277.031 45.8942 244.906C42.1569 234.806 34.1937 226.843 24.0937 223.106C-8.03123 211.218 -8.03123 165.782 24.0937 153.894C34.1937 150.157 42.1569 142.194 45.8942 132.094Z" fill="url(#paint0_linear_1315_11134)"/>
<path d="M57.6836 115.721C75.918 101.481 105.798 106.938 115.106 132.093C118.843 142.193 126.806 150.156 136.906 153.893C148.347 158.127 155.712 166.617 159.004 176.331C151.737 178.503 144.036 179.671 136.062 179.671C97.3794 179.671 65.1104 152.211 57.6836 115.721Z" fill="white" fill-opacity="0.1"/>
<path d="M63.1494 174.88C62.2059 175.823 61.6758 177.103 61.6758 178.437C61.6758 179.772 62.2059 181.052 63.1494 181.995C64.0929 182.939 65.3727 183.469 66.707 183.469C68.0414 183.469 69.3211 182.939 70.2647 181.995C71.2082 181.052 71.7383 179.772 71.7383 178.437C71.7383 177.103 71.2082 175.823 70.2647 174.88C69.3211 173.936 68.0414 173.406 66.707 173.406C65.3727 173.406 64.0929 173.936 63.1494 174.88Z" fill="#00468B"/>
<path d="M95.4209 174.88C94.4774 173.936 93.1977 173.406 91.8633 173.406C90.5289 173.406 89.2492 173.936 88.3056 174.88C87.3621 175.823 86.832 177.103 86.832 178.437C86.832 179.772 87.3621 181.052 88.3056 181.995C89.2492 182.939 90.5289 183.469 91.8633 183.469C93.1977 183.469 94.4774 182.939 95.4209 181.995C96.3645 181.052 96.8945 179.772 96.8945 178.437C96.8945 177.103 96.3645 175.823 95.4209 174.88Z" fill="#00468B"/>
<path d="M85.7326 196.349C85.7326 203.462 82.8493 209.229 79.2926 209.229C75.7359 209.229 72.8526 203.462 72.8526 196.349C72.8526 189.235 75.7359 183.469 79.2926 183.469C82.8493 183.469 85.7326 189.235 85.7326 196.349Z" fill="#00468B"/>
<path d="M86.913 16.4341L80.5 54.2814L74.087 16.4341C73.9332 15.5189 73.9838 14.5818 74.2352 13.6878C74.4867 12.7938 74.933 11.9644 75.5432 11.257C76.1534 10.5497 76.9128 9.98138 77.7688 9.59163C78.6248 9.20188 79.5567 9 80.5 9C81.4433 9 82.3752 9.20188 83.2312 9.59163C84.0872 9.98138 84.8466 10.5497 85.4568 11.257C86.067 11.9644 86.5133 12.7938 86.7648 13.6878C87.0162 14.5818 87.0668 15.5189 86.913 16.4341Z" stroke="#FFD400" stroke-width="15" stroke-linecap="round" stroke-linejoin="round"/>
<path d="M80.4999 86.9994C83.3266 86.9994 85.6181 84.7461 85.6181 81.9665C85.6181 79.1869 83.3266 76.9336 80.4999 76.9336C77.6733 76.9336 75.3818 79.1869 75.3818 81.9665C75.3818 84.7461 77.6733 86.9994 80.4999 86.9994Z" stroke="#FFD400" stroke-width="10"/>
<defs>
<linearGradient id="paint0_linear_1315_11134" x1="80.5" y1="108" x2="80.5" y2="300.061" gradientUnits="userSpaceOnUse">
<stop stop-color="#00D5FF"/>
<stop offset="1" stop-color="#0080FF"/>
</linearGradient>
</defs>
</svg>
