<svg width="20" height="20" viewBox="0 0 20 20" fill="none" xmlns="http://www.w3.org/2000/svg">
<path d="M7.85029 9.18355C9.64991 9.18355 11.1088 7.72467 11.1088 5.92506C11.1088 4.12544 9.64991 2.66656 7.85029 2.66656C6.05067 2.66656 4.5918 4.12544 4.5918 5.92506C4.5918 7.72467 6.05067 9.18355 7.85029 9.18355Z" stroke="#545454" stroke-width="1.24133"/>
<path d="M4.18329 11.1386H4.59199H7.85048H9.80558H11.109H11.5177C12.052 11.1386 12.5263 11.4805 12.6953 11.9874L13.5505 14.5531C13.9524 15.7588 13.055 17.0039 11.7841 17.0039H3.91688C2.64596 17.0039 1.74853 15.7588 2.15043 14.5531L3.00566 11.9874C3.17463 11.4805 3.64899 11.1386 4.18329 11.1386Z" stroke="#545454" stroke-width="1.24133" stroke-linecap="round" stroke-linejoin="round"/>
<path d="M10.698 11.2543L6.22917 15.1645M5.48438 11.2543L7.85091 13.7455" stroke="#545454" stroke-width="1.24133" stroke-linecap="round" stroke-linejoin="round"/>
<path d="M14.3682 11.356H16.0749H16.5144C17.0337 11.356 17.498 11.6791 17.6784 12.1659L18.4036 14.1227C18.8542 15.3389 17.9546 16.6317 16.6576 16.6317H15.2991" stroke="#545454" stroke-width="1.24133" stroke-linecap="round" stroke-linejoin="round"/>
<path d="M12.09 8.83428C12.39 9.05112 12.7425 9.21054 13.1325 9.29113C14.5444 9.58288 15.914 8.73085 16.1914 7.38805C16.4688 6.04525 15.5491 4.72018 14.1372 4.42842C13.7472 4.34783 13.3604 4.35451 12.999 4.43468" stroke="#545454" stroke-width="1.24133" stroke-linecap="round"/>
</svg>
