<svg width="30" height="30" viewBox="0 0 30 30" fill="none" xmlns="http://www.w3.org/2000/svg">
<path d="M19.7368 12.3684C19.7368 14.3761 18.9339 16.1963 17.6316 17.5252C16.2942 18.89 14.4302 19.7368 12.3684 19.7368C8.29895 19.7368 5 16.4379 5 12.3684C5 8.29895 8.29895 5 12.3684 5C16.4379 5 19.7368 8.29895 19.7368 12.3684Z" stroke="#545454" stroke-width="2"/>
<path d="M23.9394 26.0599C24.5251 26.6457 25.4749 26.6457 26.0607 26.0599C26.6465 25.4742 26.6465 24.5244 26.0607 23.9386L25 24.9993L23.9394 26.0599ZM17.6316 17.6309L16.5709 18.6915L23.9394 26.0599L25 24.9993L26.0607 23.9386L18.6923 16.5702L17.6316 17.6309Z" fill="#545454"/>
</svg>
