<svg width="23" height="23" viewBox="0 0 23 23" fill="none" xmlns="http://www.w3.org/2000/svg">
<path d="M15.7368 8.36842C15.7368 10.3761 14.9339 12.1963 13.6316 13.5252C12.2942 14.89 10.4302 15.7368 8.36842 15.7368C4.29895 15.7368 1 12.4379 1 8.36842C1 4.29895 4.29895 1 8.36842 1C12.4379 1 15.7368 4.29895 15.7368 8.36842Z" stroke="#B3B3B3" stroke-width="2"/>
<path d="M19.9394 22.0609C20.5251 22.6467 21.4749 22.6467 22.0607 22.0609C22.6465 21.4751 22.6465 20.5254 22.0607 19.9396L21 21.0003L19.9394 22.0609ZM13.6316 13.6318L12.5709 14.6925L19.9394 22.0609L21 21.0003L22.0607 19.9396L14.6923 12.5712L13.6316 13.6318Z" fill="#B3B3B3"/>
</svg>
