<svg width="30" height="30" viewBox="0 0 30 30" fill="none" xmlns="http://www.w3.org/2000/svg">
<path d="M19.7368 12.3684C19.7368 14.3761 18.9339 16.1963 17.6316 17.5252C16.2942 18.89 14.4302 19.7368 12.3684 19.7368C8.29895 19.7368 5 16.4379 5 12.3684C5 8.29895 8.29895 5 12.3684 5C16.4379 5 19.7368 8.29895 19.7368 12.3684Z" stroke="#009DFF" stroke-width="2"/>
<path d="M23.9396 26.0609C24.5254 26.6467 25.4751 26.6467 26.0609 26.0609C26.6467 25.4751 26.6467 24.5254 26.0609 23.9396L25.0003 25.0003L23.9396 26.0609ZM17.6318 17.6318L16.5712 18.6925L23.9396 26.0609L25.0003 25.0003L26.0609 23.9396L18.6925 16.5712L17.6318 17.6318Z" fill="#009DFF"/>
</svg>
