<svg width="94" height="64" viewBox="0 0 94 64" fill="none" xmlns="http://www.w3.org/2000/svg">
<path d="M20.1751 11.3737C23.2676 1.54211 36.7324 1.54211 39.8249 11.3737C41.2078 15.7705 45.1743 18.7474 49.6497 18.7474C59.6571 18.7474 63.818 31.9756 55.7218 38.0519C52.1011 40.7693 50.5861 45.5859 51.9691 49.9827C55.0615 59.8143 44.1682 67.9898 36.0721 61.9136C32.4514 59.1962 27.5486 59.1962 23.9279 61.9136C15.8318 67.9898 4.93849 59.8143 8.03094 49.9827C9.41393 45.5859 7.89888 40.7693 4.27818 38.0519C-3.81796 31.9756 0.342901 18.7474 10.3503 18.7474C14.8257 18.7474 18.7922 15.7705 20.1751 11.3737Z" fill="url(#paint0_linear_647_8240)"/>
<path d="M20.1751 11.3737C23.2676 1.54211 36.7324 1.54211 39.8249 11.3737C41.2078 15.7705 45.1743 18.7474 49.6497 18.7474C59.6571 18.7474 63.818 31.9756 55.7218 38.0519C52.1011 40.7693 50.5861 45.5859 51.9691 49.9827C55.0615 59.8143 44.1682 67.9898 36.0721 61.9136C32.4514 59.1962 27.5486 59.1962 23.9279 61.9136C15.8318 67.9898 4.93849 59.8143 8.03094 49.9827C9.41393 45.5859 7.89888 40.7693 4.27818 38.0519C-3.81796 31.9756 0.342901 18.7474 10.3503 18.7474C14.8257 18.7474 18.7922 15.7705 20.1751 11.3737Z" fill="url(#paint1_linear_647_8240)"/>
<path d="M20.156 11.41C23.0276 2.24831 34.8296 1.58231 39 9.41155C34.4404 21.4471 22.8386 30 9.24613 30C6.03029 30 2.9261 29.5203 0 28.63C0.462948 23.5297 4.35328 18.8201 10.3178 18.8201C14.7993 18.8201 18.7711 15.8285 20.156 11.41Z" fill="white" fill-opacity="0.2"/>
<path d="M23.9039 29.8632C23.9039 29.369 24.1008 28.8951 24.4512 28.5457C24.8016 28.1963 25.2769 28 25.7725 28C26.2681 28 26.7434 28.1963 27.0938 28.5457C27.4443 28.8951 27.6411 29.369 27.6411 29.8632C27.6411 30.3573 27.4443 30.8312 27.0938 31.1806C26.7434 31.53 26.2681 31.7263 25.7725 31.7263C25.2769 31.7263 24.8016 31.53 24.4512 31.1806C24.1008 30.8312 23.9039 30.3573 23.9039 29.8632ZM35.1156 28C35.6112 28 36.0864 28.1963 36.4369 28.5457C36.7873 28.8951 36.9842 29.369 36.9842 29.8632C36.9842 30.3573 36.7873 30.8312 36.4369 31.1806C36.0864 31.53 35.6112 31.7263 35.1156 31.7263C34.62 31.7263 34.1447 31.53 33.7943 31.1806C33.4438 30.8312 33.247 30.3573 33.247 29.8632C33.247 29.369 33.4438 28.8951 33.7943 28.5457C34.1447 28.1963 34.62 28 35.1156 28Z" fill="#545454"/>
<path d="M24.2956 33.0131C23.4664 33.0131 22.8066 33.7293 23.0518 34.5211C24.027 37.6943 26.9934 40 30.4971 40C34.0007 40 36.9671 37.6943 37.9482 34.5211C38.1934 33.7351 37.5336 33.0131 36.7044 33.0131H24.2956Z" fill="#545454"/>
<path d="M74.0876 3.68684C75.6338 -1.22895 82.3662 -1.22895 83.9124 3.68684C84.6039 5.88524 86.5871 7.37368 88.8249 7.37368C93.8286 7.37368 95.909 13.9878 91.8609 17.0259C90.0506 18.3846 89.293 20.793 89.9845 22.9914C91.5308 27.9072 86.0841 31.9949 82.0361 28.9568C80.2257 27.5981 77.7743 27.5981 75.964 28.9568C71.9159 31.9949 66.4692 27.9072 68.0155 22.9914C68.707 20.793 67.9494 18.3846 66.1391 17.0259C62.091 13.9878 64.1715 7.37368 69.1751 7.37368C71.4129 7.37368 73.3961 5.88524 74.0876 3.68684Z" fill="url(#paint2_linear_647_8240)"/>
<path d="M74.0876 3.68684C75.6338 -1.22895 82.3662 -1.22895 83.9124 3.68684C84.6039 5.88524 86.5871 7.37368 88.8249 7.37368C93.8286 7.37368 95.909 13.9878 91.8609 17.0259C90.0506 18.3846 89.293 20.793 89.9845 22.9914C91.5308 27.9072 86.0841 31.9949 82.0361 28.9568C80.2257 27.5981 77.7743 27.5981 75.964 28.9568C71.9159 31.9949 66.4692 27.9072 68.0155 22.9914C68.707 20.793 67.9494 18.3846 66.1391 17.0259C62.091 13.9878 64.1715 7.37368 69.1751 7.37368C71.4129 7.37368 73.3961 5.88524 74.0876 3.68684Z" fill="url(#paint3_linear_647_8240)"/>
<path d="M73.8196 3.70498C75.2186 -0.875845 80.9683 -1.20884 83 2.70577C80.7787 8.72354 75.1265 13 68.5045 13C66.9378 13 65.4255 12.7602 64 12.315C64.2255 9.76484 66.1208 7.41007 69.0266 7.41007C71.2099 7.41005 73.1449 5.91424 73.8196 3.70498Z" fill="white" fill-opacity="0.2"/>
<defs>
<linearGradient id="paint0_linear_647_8240" x1="-3.37148e-06" y1="4" x2="28.1861" y2="130.863" gradientUnits="userSpaceOnUse">
<stop stop-color="#FFCC00"/>
<stop offset="1" stop-color="#FF7700"/>
</linearGradient>
<linearGradient id="paint1_linear_647_8240" x1="-3.37148e-06" y1="4" x2="28.1861" y2="130.863" gradientUnits="userSpaceOnUse">
<stop stop-color="#FBFF00"/>
<stop offset="1" stop-color="#FF7700"/>
</linearGradient>
<linearGradient id="paint2_linear_647_8240" x1="64" y1="-1.88867e-08" x2="78.0931" y2="63.4313" gradientUnits="userSpaceOnUse">
<stop stop-color="#FFCC00"/>
<stop offset="1" stop-color="#FF7700"/>
</linearGradient>
<linearGradient id="paint3_linear_647_8240" x1="64" y1="-1.88867e-08" x2="78.0931" y2="63.4313" gradientUnits="userSpaceOnUse">
<stop stop-color="#FBFF00"/>
<stop offset="1" stop-color="#FF7700"/>
</linearGradient>
</defs>
</svg>
