<svg width="64" height="64" viewBox="0 0 64 64" fill="none" xmlns="http://www.w3.org/2000/svg">
<path d="M18.2437 9.57762C22.969 -3.19254 41.031 -3.19254 45.7563 9.57762C47.242 13.5925 50.4075 16.758 54.4224 18.2437C67.1925 22.969 67.1925 41.031 54.4224 45.7563C50.4075 47.242 47.242 50.4075 45.7563 54.4224C41.031 67.1925 22.969 67.1925 18.2437 54.4224C16.758 50.4075 13.5925 47.242 9.57762 45.7563C-3.19254 41.031 -3.19254 22.969 9.57762 18.2437C13.5925 16.758 16.758 13.5925 18.2437 9.57762Z" fill="url(#paint0_linear_647_8252)"/>
<path d="M22.9302 3.06938C30.1786 -2.59143 42.0563 -0.422173 45.7565 9.5775C47.2421 13.5923 50.4075 16.7577 54.4224 18.2434C58.9705 19.9263 61.8981 23.3013 63.2066 27.1626C60.3177 28.026 57.2566 28.4902 54.0869 28.4902C38.7099 28.4902 25.8824 17.5747 22.9302 3.06938Z" fill="white" fill-opacity="0.1"/>
<path d="M31.4919 34.6044C29.1669 34.6044 27.5419 33.5106 26.5919 32.4856H26.6044C26.0419 31.8731 25.0981 31.8356 24.4856 32.3981C23.8731 32.9606 23.8356 33.9106 24.3981 34.5169C25.7669 36.0106 28.1481 37.6044 31.4981 37.6044C34.8481 37.6044 37.2231 36.0044 38.5981 34.5169C39.1606 33.9106 39.1169 32.9606 38.5106 32.3981C37.9044 31.8356 36.9544 31.8794 36.3919 32.4856C35.4419 33.5106 33.8169 34.6044 31.4919 34.6044Z" fill="#00468B"/>
<path d="M25.1026 26.5858C24.7276 26.9609 24.5168 27.4696 24.5168 28C24.5168 28.5304 24.7276 29.0391 25.1026 29.4142C25.4777 29.7893 25.9864 30 26.5168 30C27.0473 30 27.556 29.7893 27.9311 29.4142C28.3061 29.0391 28.5168 28.5304 28.5168 28C28.5168 27.4696 28.3061 26.9609 27.9311 26.5858C27.556 26.2107 27.0473 26 26.5168 26C25.9864 26 25.4777 26.2107 25.1026 26.5858Z" fill="#00468B"/>
<path d="M37.9311 26.5858C37.556 26.2107 37.0473 26 36.5168 26C35.9864 26 35.4777 26.2107 35.1026 26.5858C34.7276 26.9609 34.5168 27.4696 34.5168 28C34.5168 28.5304 34.7276 29.0391 35.1026 29.4142C35.4777 29.7893 35.9864 30 36.5168 30C37.0473 30 37.556 29.7893 37.9311 29.4142C38.3061 29.0391 38.5168 28.5304 38.5168 28C38.5168 27.4696 38.3061 26.9609 37.9311 26.5858Z" fill="#00468B"/>
<defs>
<linearGradient id="paint0_linear_647_8252" x1="32" y1="0" x2="32" y2="76.3474" gradientUnits="userSpaceOnUse">
<stop stop-color="#00D5FF"/>
<stop offset="1" stop-color="#0080FF"/>
</linearGradient>
</defs>
</svg>
