<svg width="24" height="24" viewBox="0 0 24 24" fill="none" xmlns="http://www.w3.org/2000/svg">
<rect width="24" height="24" rx="5" fill="#545454"/>
<path fill-rule="evenodd" clip-rule="evenodd" d="M4.36364 0C3.20633 0 2.09642 0.459739 1.27808 1.27808C0.459739 2.09642 0 3.20633 0 4.36364V19.6364C0 20.7937 0.459739 21.9036 1.27808 22.7219C2.09642 23.5403 3.20633 24 4.36364 24H19.6364C20.7937 24 21.9036 23.5403 22.7219 22.7219C23.5403 21.9036 24 20.7937 24 19.6364V4.36364C24 3.20633 23.5403 2.09642 22.7219 1.27808C21.9036 0.459739 20.7937 0 19.6364 0H4.36364ZM3.27273 10.8098C3.27273 6.792 7.26218 3.66982 12 3.66982C16.7378 3.66982 20.7273 6.792 20.7273 10.8098C20.7273 14.8276 16.7378 17.9498 12 17.9498C11.6335 17.9501 11.2672 17.9319 10.9025 17.8953L7.05164 20.2713C6.98671 20.3113 6.91163 20.3318 6.83537 20.3303C6.75911 20.3287 6.68491 20.3053 6.62162 20.2627C6.55834 20.2201 6.50865 20.1602 6.47851 20.0902C6.44836 20.0201 6.43904 19.9429 6.45164 19.8676L6.99273 16.6604C4.76836 15.384 3.27273 13.2556 3.27273 10.8098Z" fill="#FEE102"/>
</svg>
