<svg width="125" height="125" viewBox="0 0 125 125" fill="none" xmlns="http://www.w3.org/2000/svg">
<path d="M42.0315 15.3618C48.4741 -5.12061 76.5259 -5.12061 82.9685 15.3618V15.3618C85.8497 24.5218 94.1131 30.7236 103.437 30.7236V30.7236C124.286 30.7236 132.954 58.2826 116.087 70.9414V70.9414C108.544 76.6026 105.388 86.6373 108.269 95.7974V95.7974C114.711 116.28 92.0172 133.312 75.1502 120.653V120.653C67.6071 114.992 57.3929 114.992 49.8498 120.653V120.653C32.9829 133.312 10.2885 116.28 16.7311 95.7974V95.7974C19.6123 86.6373 16.456 76.6026 8.91287 70.9414V70.9414C-7.95408 58.2826 0.714378 30.7236 21.5631 30.7236V30.7236C30.8869 30.7236 39.1503 24.5218 42.0315 15.3618V15.3618Z" fill="url(#paint0_linear_1834_30286)"/>
<path d="M42.0315 15.3618C48.4741 -5.12061 76.5259 -5.12061 82.9685 15.3618V15.3618C85.8497 24.5218 94.1131 30.7236 103.437 30.7236V30.7236C124.286 30.7236 132.954 58.2826 116.087 70.9414V70.9414C108.544 76.6026 105.388 86.6373 108.269 95.7974V95.7974C114.711 116.28 92.0172 133.312 75.1502 120.653V120.653C67.6071 114.992 57.3929 114.992 49.8498 120.653V120.653C32.9829 133.312 10.2885 116.28 16.7311 95.7974V95.7974C19.6123 86.6373 16.456 76.6026 8.91287 70.9414V70.9414C-7.95408 58.2826 0.714378 30.7236 21.5631 30.7236V30.7236C30.8869 30.7236 39.1503 24.5218 42.0315 15.3618V15.3618Z" fill="url(#paint1_linear_1834_30286)"/>
<path d="M42.0314 15.3614C48.0056 -3.63139 72.5595 -5.01205 81.2359 11.2185C71.7498 36.1691 47.6124 53.9 19.3336 53.9C12.6431 53.9 6.18487 52.9056 0.097168 51.0599C1.06032 40.4865 9.15409 30.7233 21.5632 30.7233C30.8869 30.7232 39.1502 24.5213 42.0314 15.3614Z" fill="white" fill-opacity="0.2"/>
<path d="M48.7646 54.6875C48.7646 53.6515 49.1761 52.6579 49.9087 51.9254C50.6413 51.1928 51.6348 50.7812 52.6708 50.7812C53.7068 50.7812 54.7004 51.1928 55.433 51.9254C56.1656 52.6579 56.5771 53.6515 56.5771 54.6875C56.5771 55.7235 56.1656 56.7171 55.433 57.4496C54.7004 58.1822 53.7068 58.5937 52.6708 58.5937C51.6348 58.5937 50.6413 58.1822 49.9087 57.4496C49.1761 56.7171 48.7646 55.7235 48.7646 54.6875ZM72.2021 50.7812C73.2381 50.7812 74.2317 51.1928 74.9642 51.9254C75.6968 52.6579 76.1084 53.6515 76.1084 54.6875C76.1084 55.7235 75.6968 56.7171 74.9642 57.4496C74.2317 58.1822 73.2381 58.5937 72.2021 58.5937C71.1661 58.5937 70.1725 58.1822 69.44 57.4496C68.7074 56.7171 68.2959 55.7235 68.2959 54.6875C68.2959 53.6515 68.7074 52.6579 69.44 51.9254C70.1725 51.1928 71.1661 50.7812 72.2021 50.7812Z" fill="#545454"/>
<path d="M49.5835 61.2915C47.8501 61.2915 46.4707 62.793 46.9834 64.4531C49.0219 71.106 55.2231 75.9399 62.5473 75.9399C69.8716 75.9399 76.0727 71.106 78.1235 64.4531C78.6362 62.8052 77.2568 61.2915 75.5234 61.2915H49.5835Z" fill="#545454"/>
<defs>
<linearGradient id="paint0_linear_1834_30286" x1="-7.02391e-06" y1="-7.86946e-08" x2="58.7211" y2="264.297" gradientUnits="userSpaceOnUse">
<stop stop-color="#FFCC00"/>
<stop offset="1" stop-color="#FF7700"/>
</linearGradient>
<linearGradient id="paint1_linear_1834_30286" x1="-7.02391e-06" y1="-7.86946e-08" x2="58.7211" y2="264.297" gradientUnits="userSpaceOnUse">
<stop stop-color="#FBFF00"/>
<stop offset="1" stop-color="#FF7700"/>
</linearGradient>
</defs>
</svg>
