<svg width="24" height="24" viewBox="0 0 24 24" fill="none" xmlns="http://www.w3.org/2000/svg">
<path d="M4.6923 8.19236L6.43752 12.5033M6.43752 12.5033L8.80296 18.3462L10.916 12.4744M6.43752 12.5033L3.96151 12.5192M6.43752 12.5033L10.916 12.4744M10.916 12.4744L12.0001 9.46159L13.0793 12.4605M10.916 12.4744L13.0793 12.4605M13.0793 12.4605L15.1973 18.3462L17.5918 12.4315M13.0793 12.4605L17.5918 12.4315M17.5918 12.4315L19.308 8.19236M17.5918 12.4315L20.0384 12.4157M12.0002 23C18.0755 23 23.0002 18.0753 23.0002 12C23.0002 5.9247 18.0755 1 12.0002 1C5.92487 1 1.00017 5.9247 1.00017 12C1.00017 18.0753 5.92487 23 12.0002 23Z" stroke="#545454" stroke-width="1.73333" stroke-linecap="round" stroke-linejoin="round"/>
</svg>
