<svg width="30" height="30" viewBox="0 0 30 30" fill="none" xmlns="http://www.w3.org/2000/svg">
<path d="M11.7754 13.7755C14.4749 13.7755 16.6632 11.5872 16.6632 8.88774C16.6632 6.18832 14.4749 4 11.7754 4C9.07601 4 6.8877 6.18832 6.8877 8.88774C6.8877 11.5872 9.07601 13.7755 11.7754 13.7755Z" stroke="#545454" stroke-width="1.862"/>
<path d="M6.27469 16.708H6.88774H11.7755H14.7081H16.6632H17.2763C18.0777 16.708 18.7893 17.2209 19.0427 17.9812L20.3256 21.8297C20.9284 23.6383 19.5823 25.5059 17.6759 25.5059H5.87507C3.96869 25.5059 2.62256 23.6383 3.22541 21.8297L4.50825 17.9812C4.76169 17.2209 5.47323 16.708 6.27469 16.708Z" stroke="#545454" stroke-width="1.862" stroke-linecap="round" stroke-linejoin="round"/>
<path d="M16.0465 16.8818L9.34327 22.7471M8.22607 16.8818L11.7759 20.6186" stroke="#545454" stroke-width="1.862" stroke-linecap="round" stroke-linejoin="round"/>
<path d="M21.5518 17.0342H24.1119H24.7712C25.55 17.0342 26.2465 17.5189 26.5172 18.2492L27.6048 21.1843C28.2809 23.0086 26.9314 24.9478 24.9859 24.9478H22.9482" stroke="#545454" stroke-width="1.862" stroke-linecap="round" stroke-linejoin="round"/>
<path d="M18.1345 13.2514C18.5846 13.5767 19.1132 13.8158 19.6982 13.9367C21.8161 14.3743 23.8704 13.0963 24.2866 11.0821C24.7028 9.06787 23.3232 7.08027 21.2053 6.64263C20.6203 6.52175 20.0402 6.53176 19.4981 6.65202" stroke="#545454" stroke-width="1.862" stroke-linecap="round"/>
</svg>
