<svg width="30" height="30" viewBox="0 0 30 30" fill="none" xmlns="http://www.w3.org/2000/svg">
<path d="M15.1252 23.5C15.8846 23.5 16.5002 22.8844 16.5002 22.125C16.5002 21.3656 15.8846 20.75 15.1252 20.75C14.3659 20.75 13.7502 21.3656 13.7502 22.125C13.7502 22.8844 14.3659 23.5 15.1252 23.5Z" fill="#545454"/>
<path d="M15.125 19V17.9526C15.125 17.0799 15.6159 16.2647 16.4326 15.7807L17.2563 15.2918C17.8694 14.928 18.372 14.4354 18.7198 13.8576C19.0676 13.2799 19.2497 12.6348 19.25 11.9796V11.6667C19.25 10.6942 18.8154 9.76158 18.0418 9.07394C17.2682 8.38631 16.219 8 15.125 8C14.031 8 12.9818 8.38631 12.2082 9.07394C11.4346 9.76158 11 10.6942 11 11.6667" stroke="#545454" stroke-width="2" stroke-linecap="round"/>
<path d="M15 26C21.0751 26 26 21.0751 26 15C26 8.92487 21.0751 4 15 4C8.92487 4 4 8.92487 4 15C4 21.0751 8.92487 26 15 26Z" stroke="#545454" stroke-width="2"/>
</svg>
