<svg width="30" height="30" viewBox="0 0 30 30" fill="none" xmlns="http://www.w3.org/2000/svg">
<path d="M5 6H25C25.5523 6 26 6.44771 26 7V23C26 23.5523 25.5523 24 25 24H5C4.44772 24 4 23.5523 4 23V7C4 6.44772 4.44772 6 5 6Z" stroke="#545454" stroke-width="2" stroke-linejoin="round"/>
<path d="M7.69172 10L9.43695 14.3109M9.43695 14.3109L11.8024 20.1538L13.9154 14.2821M9.43695 14.3109L6.96094 14.3269M9.43695 14.3109L13.9154 14.2821M13.9154 14.2821L14.9996 11.2692L16.0788 14.2682M13.9154 14.2821L16.0788 14.2682M16.0788 14.2682L18.1968 20.1538L20.5913 14.2391M16.0788 14.2682L20.5913 14.2391M20.5913 14.2391L22.3074 10M20.5913 14.2391L23.0379 14.2234" stroke="#545454" stroke-width="1.73333" stroke-linecap="round" stroke-linejoin="round"/>
</svg>
