<svg width="32" height="32" viewBox="0 0 32 32" fill="none" xmlns="http://www.w3.org/2000/svg">
<g clip-path="url(#clip0_757_18321)">
<rect width="32" height="32" rx="8" fill="#545454"/>
<path fill-rule="evenodd" clip-rule="evenodd" d="M5.81818 0C4.2751 0 2.79523 0.612985 1.70411 1.70411C0.612985 2.79523 0 4.2751 0 5.81818V26.1818C0 27.7249 0.612985 29.2048 1.70411 30.2959C2.79523 31.387 4.2751 32 5.81818 32H26.1818C27.7249 32 29.2048 31.387 30.2959 30.2959C31.387 29.2048 32 27.7249 32 26.1818V5.81818C32 4.2751 31.387 2.79523 30.2959 1.70411C29.2048 0.612985 27.7249 0 26.1818 0H5.81818ZM4.36364 14.4131C4.36364 9.056 9.68291 4.89309 16 4.89309C22.3171 4.89309 27.6364 9.056 27.6364 14.4131C27.6364 19.7702 22.3171 23.9331 16 23.9331C15.5113 23.9334 15.023 23.9092 14.5367 23.8604L9.40218 27.0284C9.31561 27.0817 9.2155 27.109 9.11383 27.107C9.01215 27.105 8.91321 27.0737 8.82883 27.017C8.74445 26.9602 8.67821 26.8803 8.63801 26.7869C8.59782 26.6935 8.58538 26.5905 8.60218 26.4902L9.32364 22.2138C6.35782 20.512 4.36364 17.6742 4.36364 14.4131ZM8.06545 11.5695C7.87257 11.5695 7.68759 11.6461 7.5512 11.7825C7.41481 11.9189 7.33818 12.1038 7.33818 12.2967C7.33818 12.4896 7.41481 12.6746 7.5512 12.811C7.68759 12.9474 7.87257 13.024 8.06545 13.024H8.92509V17.0575C8.92509 17.2503 9.00171 17.4353 9.1381 17.5717C9.27449 17.7081 9.45948 17.7847 9.65236 17.7847C9.84525 17.7847 10.0302 17.7081 10.1666 17.5717C10.303 17.4353 10.3796 17.2503 10.3796 17.0575V13.024H11.2393C11.4322 13.024 11.6171 12.9474 11.7535 12.811C11.8899 12.6746 11.9665 12.4896 11.9665 12.2967C11.9665 12.1038 11.8899 11.9189 11.7535 11.7825C11.6171 11.6461 11.4322 11.5695 11.2393 11.5695H8.06545ZM14.2982 12.0349C14.2451 11.8983 14.1519 11.781 14.031 11.6982C13.91 11.6155 13.7669 11.5712 13.6204 11.5712C13.4738 11.5712 13.3307 11.6155 13.2097 11.6982C13.0888 11.781 12.9957 11.8983 12.9425 12.0349L11.0909 16.7942C11.0252 16.9731 11.0322 17.1706 11.1107 17.3443C11.1891 17.518 11.3325 17.654 11.5102 17.723C11.6879 17.792 11.8855 17.7885 12.0606 17.7133C12.2357 17.6381 12.3743 17.4971 12.4465 17.3207L12.6778 16.7273H14.5629L14.7927 17.3207C14.8261 17.4114 14.8771 17.4946 14.943 17.5653C15.0088 17.636 15.0881 17.6929 15.1761 17.7327C15.2642 17.7724 15.3593 17.7942 15.4559 17.7968C15.5525 17.7994 15.6486 17.7827 15.7387 17.7477C15.8287 17.7128 15.9109 17.6602 15.9804 17.5931C16.05 17.526 16.1054 17.4457 16.1435 17.3569C16.1817 17.2681 16.2018 17.1726 16.2026 17.076C16.2034 16.9794 16.185 16.8836 16.1484 16.7942L14.2982 12.0349ZM13.6204 14.304L13.9971 15.2727H13.2436L13.6204 14.304ZM17.7847 12.2967C17.7847 12.1038 17.7081 11.9189 17.5717 11.7825C17.4353 11.6461 17.2503 11.5695 17.0575 11.5695C16.8646 11.5695 16.6796 11.6461 16.5432 11.7825C16.4068 11.9189 16.3302 12.1038 16.3302 12.2967V17.0575C16.3302 17.2503 16.4068 17.4353 16.5432 17.5717C16.6796 17.7081 16.8646 17.7847 17.0575 17.7847H19.1738C19.3667 17.7847 19.5517 17.7081 19.6881 17.5717C19.8245 17.4353 19.9011 17.2503 19.9011 17.0575C19.9011 16.8646 19.8245 16.6796 19.6881 16.5432C19.5517 16.4068 19.3667 16.3302 19.1738 16.3302H17.7847V12.2967ZM20.7607 11.5695C20.9536 11.5695 21.1386 11.6461 21.275 11.7825C21.4114 11.9189 21.488 12.1038 21.488 12.2967V13.7149L23.4182 11.7833C23.4853 11.7138 23.5655 11.6584 23.6543 11.6203C23.743 11.5822 23.8384 11.5621 23.935 11.5613C24.0315 11.5604 24.1273 11.5788 24.2167 11.6154C24.3061 11.652 24.3873 11.706 24.4556 11.7743C24.5238 11.8425 24.5778 11.9237 24.6144 12.0131C24.651 12.1025 24.6694 12.1983 24.6685 12.2948C24.6677 12.3914 24.6476 12.4868 24.6095 12.5756C24.5714 12.6643 24.516 12.7445 24.4465 12.8116L22.7913 14.4669L24.5004 16.6036C24.6139 16.7547 24.6641 16.944 24.6404 17.1315C24.6168 17.319 24.5211 17.4899 24.3737 17.608C24.2262 17.7262 24.0386 17.7823 23.8504 17.7645C23.6623 17.7467 23.4885 17.6564 23.3658 17.5127L21.7556 15.5025L21.4865 15.7716V17.0575C21.4865 17.2503 21.4099 17.4353 21.2735 17.5717C21.1371 17.7081 20.9522 17.7847 20.7593 17.7847C20.5664 17.7847 20.3814 17.7081 20.245 17.5717C20.1086 17.4353 20.032 17.2503 20.032 17.0575V12.2967C20.032 12.1038 20.1086 11.9189 20.245 11.7825C20.3814 11.6461 20.5678 11.5695 20.7607 11.5695Z" fill="#FEE102"/>
</g>
<defs>
<clipPath id="clip0_757_18321">
<rect width="32" height="32" rx="8" fill="white"/>
</clipPath>
</defs>
</svg>
