<svg width="24" height="23" viewBox="0 0 24 23" fill="none" xmlns="http://www.w3.org/2000/svg">
<path fill-rule="evenodd" clip-rule="evenodd" d="M0 9.52C0 4.16291 5.31927 0 11.6364 0C17.9535 0 23.2727 4.16291 23.2727 9.52C23.2727 14.8771 17.9535 19.04 11.6364 19.04C11.1477 19.0404 10.6593 19.0161 10.1731 18.9673L5.03855 22.1353C4.95198 22.1886 4.85187 22.2159 4.75019 22.2139C4.64852 22.2119 4.54957 22.1806 4.4652 22.1239C4.38082 22.0671 4.31457 21.9872 4.27438 21.8938C4.23418 21.8004 4.22174 21.6974 4.23855 21.5971L4.96 17.3207C1.99418 15.6189 0 12.7811 0 9.52ZM3.70182 6.67636C3.50893 6.67636 3.32395 6.75299 3.18756 6.88938C3.05117 7.02577 2.97455 7.21075 2.97455 7.40364C2.97455 7.59652 3.05117 7.78151 3.18756 7.9179C3.32395 8.05429 3.50893 8.13091 3.70182 8.13091H4.56146V12.1644C4.56146 12.3572 4.63808 12.5422 4.77447 12.6786C4.91086 12.815 5.09584 12.8916 5.28873 12.8916C5.48161 12.8916 5.6666 12.815 5.80299 12.6786C5.93938 12.5422 6.016 12.3572 6.016 12.1644V8.13091H6.87564C7.06852 8.13091 7.25351 8.05429 7.3899 7.9179C7.52629 7.78151 7.60291 7.59652 7.60291 7.40364C7.60291 7.21075 7.52629 7.02577 7.3899 6.88938C7.25351 6.75299 7.06852 6.67636 6.87564 6.67636H3.70182ZM9.93455 7.14182C9.88143 7.00524 9.7883 6.8879 9.66735 6.80516C9.54639 6.72242 9.40327 6.67815 9.25673 6.67815C9.11019 6.67815 8.96706 6.72242 8.84611 6.80516C8.72516 6.8879 8.63202 7.00524 8.57891 7.14182L6.72727 11.9011C6.66152 12.08 6.66861 12.2775 6.74703 12.4512C6.82544 12.6249 6.96891 12.7609 7.14657 12.8299C7.32423 12.8989 7.52188 12.8955 7.69699 12.8202C7.8721 12.745 8.01068 12.604 8.08291 12.4276L8.31418 11.8342H10.1993L10.4291 12.4276C10.4624 12.5183 10.5135 12.6015 10.5793 12.6722C10.6452 12.7429 10.7244 12.7998 10.8125 12.8396C10.9005 12.8793 10.9956 12.9011 11.0922 12.9037C11.1888 12.9063 11.285 12.8896 11.375 12.8546C11.4651 12.8197 11.5473 12.7671 11.6168 12.7C11.6863 12.6329 11.7418 12.5526 11.7799 12.4638C11.8181 12.375 11.8381 12.2796 11.839 12.1829C11.8398 12.0863 11.8213 11.9905 11.7847 11.9011L9.93455 7.14182ZM9.25673 9.41091L9.63346 10.3796H8.88L9.25673 9.41091ZM13.4211 7.40364C13.4211 7.21075 13.3445 7.02577 13.2081 6.88938C13.0717 6.75299 12.8867 6.67636 12.6938 6.67636C12.5009 6.67636 12.3159 6.75299 12.1796 6.88938C12.0432 7.02577 11.9665 7.21075 11.9665 7.40364V12.1644C11.9665 12.3572 12.0432 12.5422 12.1796 12.6786C12.3159 12.815 12.5009 12.8916 12.6938 12.8916H14.8102C15.0031 12.8916 15.1881 12.815 15.3244 12.6786C15.4608 12.5422 15.5375 12.3572 15.5375 12.1644C15.5375 11.9715 15.4608 11.7865 15.3244 11.6501C15.1881 11.5137 15.0031 11.4371 14.8102 11.4371H13.4211V7.40364ZM16.3971 6.67636C16.59 6.67636 16.775 6.75299 16.9114 6.88938C17.0477 7.02577 17.1244 7.21075 17.1244 7.40364V8.82182L19.0545 6.89018C19.1216 6.82072 19.2019 6.76531 19.2906 6.7272C19.3793 6.68908 19.4748 6.66902 19.5713 6.66818C19.6679 6.66734 19.7637 6.68574 19.8531 6.72231C19.9424 6.75888 20.0236 6.81288 20.0919 6.88117C20.1602 6.94945 20.2142 7.03065 20.2508 7.12003C20.2873 7.20941 20.3057 7.30518 20.3049 7.40175C20.3041 7.49831 20.284 7.59375 20.2459 7.68248C20.2078 7.77121 20.1524 7.85146 20.0829 7.91854L18.4276 9.57382L20.1367 11.7105C20.2502 11.8616 20.3005 12.0509 20.2768 12.2384C20.2532 12.4259 20.1575 12.5968 20.01 12.7149C19.8626 12.8331 19.6749 12.8892 19.4868 12.8714C19.2987 12.8536 19.1249 12.7633 19.0022 12.6196L17.392 10.6095L17.1229 10.8785V12.1644C17.1229 12.3572 17.0463 12.5422 16.9099 12.6786C16.7735 12.815 16.5885 12.8916 16.3956 12.8916C16.2028 12.8916 16.0178 12.815 15.8814 12.6786C15.745 12.5422 15.6684 12.3572 15.6684 12.1644V7.40364C15.6684 7.21075 15.745 7.02577 15.8814 6.88938C16.0178 6.75299 16.2042 6.67636 16.3971 6.67636Z" fill="#545454"/>
</svg>
