<svg width="18" height="12" viewBox="0 0 18 12" fill="none" xmlns="http://www.w3.org/2000/svg">
<path d="M9 8.25C10.2426 8.25 11.25 7.24264 11.25 6C11.25 4.75736 10.2426 3.75 9 3.75C7.75736 3.75 6.75 4.75736 6.75 6C6.75 7.24264 7.75736 8.25 9 8.25Z" fill="#E0E0E0"/>
<path d="M17.685 5.01C16.62 3.495 13.65 0 9 0C4.35 0 1.38 3.495 0.315 5.01C-0.105 5.61 -0.105 6.405 0.315 6.99C1.38 8.505 4.35 12 9 12C13.65 12 16.62 8.505 17.685 6.99C18.105 6.405 18.105 5.595 17.685 5.01ZM9 9.75C8.00544 9.75 7.05161 9.35491 6.34835 8.65165C5.64509 7.94839 5.25 6.99456 5.25 6C5.25 5.00544 5.64509 4.05161 6.34835 3.34835C7.05161 2.64509 8.00544 2.25 9 2.25C9.99456 2.25 10.9484 2.64509 11.6517 3.34835C12.3549 4.05161 12.75 5.00544 12.75 6C12.75 6.99456 12.3549 7.94839 11.6517 8.65165C10.9484 9.35491 9.99456 9.75 9 9.75Z" fill="#E0E0E0"/>
</svg>
