<svg width="30" height="30" viewBox="0 0 30 30" fill="none" xmlns="http://www.w3.org/2000/svg">
<path d="M12 8.14286H26H12ZM12 15H26H12ZM12 21.8571H21.3333H12ZM6.16667 9.28571C6.47609 9.28571 6.77283 9.16531 6.99162 8.95098C7.21042 8.73665 7.33333 8.44596 7.33333 8.14286C7.33333 7.83975 7.21042 7.54906 6.99162 7.33474C6.77283 7.12041 6.47609 7 6.16667 7C5.85725 7 5.5605 7.12041 5.34171 7.33474C5.12292 7.54906 5 7.83975 5 8.14286C5 8.44596 5.12292 8.73665 5.34171 8.95098C5.5605 9.16531 5.85725 9.28571 6.16667 9.28571ZM6.16667 16.1429C6.47609 16.1429 6.77283 16.0224 6.99162 15.8081C7.21042 15.5938 7.33333 15.3031 7.33333 15C7.33333 14.6969 7.21042 14.4062 6.99162 14.1919C6.77283 13.9776 6.47609 13.8571 6.16667 13.8571C5.85725 13.8571 5.5605 13.9776 5.34171 14.1919C5.12292 14.4062 5 14.6969 5 15C5 15.3031 5.12292 15.5938 5.34171 15.8081C5.5605 16.0224 5.85725 16.1429 6.16667 16.1429ZM6.16667 23C6.47609 23 6.77283 22.8796 6.99162 22.6653C7.21042 22.4509 7.33333 22.1602 7.33333 21.8571C7.33333 21.554 7.21042 21.2633 6.99162 21.049C6.77283 20.8347 6.47609 20.7143 6.16667 20.7143C5.85725 20.7143 5.5605 20.8347 5.34171 21.049C5.12292 21.2633 5 21.554 5 21.8571C5 22.1602 5.12292 22.4509 5.34171 22.6653C5.5605 22.8796 5.85725 23 6.16667 23Z" fill="#545454"/>
<path d="M12 8.14286H26M12 15H26M12 21.8571H21.3333M6.16667 9.28571C6.47609 9.28571 6.77283 9.16531 6.99162 8.95098C7.21042 8.73665 7.33333 8.44596 7.33333 8.14286C7.33333 7.83975 7.21042 7.54906 6.99162 7.33474C6.77283 7.12041 6.47609 7 6.16667 7C5.85725 7 5.5605 7.12041 5.34171 7.33474C5.12292 7.54906 5 7.83975 5 8.14286C5 8.44596 5.12292 8.73665 5.34171 8.95098C5.5605 9.16531 5.85725 9.28571 6.16667 9.28571ZM6.16667 16.1429C6.47609 16.1429 6.77283 16.0224 6.99162 15.8081C7.21042 15.5938 7.33333 15.3031 7.33333 15C7.33333 14.6969 7.21042 14.4062 6.99162 14.1919C6.77283 13.9776 6.47609 13.8571 6.16667 13.8571C5.85725 13.8571 5.5605 13.9776 5.34171 14.1919C5.12292 14.4062 5 14.6969 5 15C5 15.3031 5.12292 15.5938 5.34171 15.8081C5.5605 16.0224 5.85725 16.1429 6.16667 16.1429ZM6.16667 23C6.47609 23 6.77283 22.8796 6.99162 22.6653C7.21042 22.4509 7.33333 22.1602 7.33333 21.8571C7.33333 21.554 7.21042 21.2633 6.99162 21.049C6.77283 20.8347 6.47609 20.7143 6.16667 20.7143C5.85725 20.7143 5.5605 20.8347 5.34171 21.049C5.12292 21.2633 5 21.554 5 21.8571C5 22.1602 5.12292 22.4509 5.34171 22.6653C5.5605 22.8796 5.85725 23 6.16667 23Z" stroke="#545454" stroke-width="2" stroke-linecap="round"/>
</svg>
