<svg width="39" height="38" viewBox="0 0 39 38" fill="none" xmlns="http://www.w3.org/2000/svg">
<path d="M17.5979 1.8541C18.1966 0.0114803 20.8034 0.0114799 21.4021 1.8541L24.5516 11.5471C24.8193 12.3712 25.5872 12.9291 26.4537 12.9291L36.6455 12.9291C38.583 12.9291 39.3885 15.4083 37.8211 16.5471L29.5757 22.5377C28.8747 23.047 28.5814 23.9498 28.8492 24.7738L31.9986 34.4668C32.5973 36.3094 30.4884 37.8417 28.9209 36.7029L20.6756 30.7123C19.9746 30.203 19.0254 30.203 18.3244 30.7123L10.0791 36.7029C8.51163 37.8417 6.40267 36.3094 7.00137 34.4668L10.1508 24.7738C10.4186 23.9498 10.1253 23.047 9.42428 22.5377L1.17891 16.5471C-0.388515 15.4083 0.417036 12.9291 2.35448 12.9291L12.5463 12.9291C13.4128 12.9291 14.1807 12.3712 14.4484 11.5471L17.5979 1.8541Z" fill="#E0E0E0"/>
</svg>
