<svg width="116" height="22" viewBox="0 0 116 22" fill="none" xmlns="http://www.w3.org/2000/svg">
<path d="M6.72505 2.45789C7.75586 -0.819297 12.2441 -0.819297 13.275 2.45789C13.7359 3.9235 15.0581 4.91578 16.5499 4.91578C19.8857 4.91578 21.2727 9.32521 18.5739 11.3506C17.367 12.2564 16.862 13.862 17.323 15.3276C18.3538 18.6048 14.7227 21.3299 12.024 19.3045C10.8171 18.3987 9.18287 18.3987 7.97597 19.3045C5.27726 21.3299 1.64616 18.6048 2.67698 15.3276C3.13797 13.862 2.63296 12.2564 1.42606 11.3506C-1.27265 9.32521 0.1143 4.91578 3.45009 4.91578C4.9419 4.91578 6.26405 3.9235 6.72505 2.45789Z" fill="url(#paint0_linear_658_8224)"/>
<path d="M6.72505 2.45789C7.75586 -0.819297 12.2441 -0.819297 13.275 2.45789C13.7359 3.9235 15.0581 4.91578 16.5499 4.91578C19.8857 4.91578 21.2727 9.32521 18.5739 11.3506C17.367 12.2564 16.862 13.862 17.323 15.3276C18.3538 18.6048 14.7227 21.3299 12.024 19.3045C10.8171 18.3987 9.18287 18.3987 7.97597 19.3045C5.27726 21.3299 1.64616 18.6048 2.67698 15.3276C3.13797 13.862 2.63296 12.2564 1.42606 11.3506C-1.27265 9.32521 0.1143 4.91578 3.45009 4.91578C4.9419 4.91578 6.26405 3.9235 6.72505 2.45789Z" fill="url(#paint1_linear_658_8224)"/>
<path d="M6.71867 2.56498C7.67586 -0.606355 11.6099 -0.836892 13 1.87323C11.4801 6.03938 7.61286 9 3.08204 9C2.0101 9 0.975367 8.83397 0 8.52577C0.154316 6.76028 1.45109 5.13005 3.43927 5.13005C4.93311 5.13003 6.25705 4.09448 6.71867 2.56498Z" fill="white" fill-opacity="0.2"/>
<path d="M8.3013 8.62106C8.3013 8.45634 8.36693 8.29837 8.48374 8.1819C8.60055 8.06543 8.75898 8 8.92417 8C9.08937 8 9.2478 8.06543 9.36461 8.1819C9.48142 8.29837 9.54705 8.45634 9.54705 8.62106C9.54705 8.78577 9.48142 8.94374 9.36461 9.06021C9.2478 9.17668 9.08937 9.24212 8.92417 9.24212C8.75898 9.24212 8.60055 9.17668 8.48374 9.06021C8.36693 8.94374 8.3013 8.78577 8.3013 8.62106ZM12.0385 8C12.2037 8 12.3621 8.06543 12.479 8.1819C12.5958 8.29837 12.6614 8.45634 12.6614 8.62106C12.6614 8.78577 12.5958 8.94374 12.479 9.06021C12.3621 9.17668 12.2037 9.24212 12.0385 9.24212C11.8733 9.24212 11.7149 9.17668 11.5981 9.06021C11.4813 8.94374 11.4157 8.78577 11.4157 8.62106C11.4157 8.45634 11.4813 8.29837 11.5981 8.1819C11.7149 8.06543 11.8733 8 12.0385 8Z" fill="#545454"/>
<path d="M8.43188 9.67103C8.15548 9.67103 7.93553 9.90975 8.01728 10.1737C8.34234 11.2314 9.33115 12 10.499 12C11.6669 12 12.6557 11.2314 12.9827 10.1737C13.0645 9.91169 12.8445 9.67103 12.5681 9.67103H8.43188Z" fill="#545454"/>
<path d="M101.701 3.99301C103.178 0.00233132 108.822 0.00233132 110.299 3.99301C110.763 5.24766 111.752 6.23688 113.007 6.70114C116.998 8.17782 116.998 13.8222 113.007 15.2989C111.752 15.7631 110.763 16.7523 110.299 18.007C108.822 21.9977 103.178 21.9977 101.701 18.007C101.237 16.7523 100.248 15.7631 98.993 15.2989C95.0023 13.8222 95.0023 8.17783 98.993 6.70114C100.248 6.23688 101.237 5.24766 101.701 3.99301Z" fill="url(#paint2_linear_658_8224)"/>
<path d="M103 1.96961C105.34 0.181372 109.173 0.866637 110.368 4.02551C110.847 5.29379 111.869 6.29373 113.165 6.76304C114.633 7.29469 115.578 8.36084 116 9.58062C115.068 9.85337 114.08 10 113.056 10C108.093 10 103.953 6.55181 103 1.96961Z" fill="white" fill-opacity="0.1"/>
<path d="M106.498 11.9659C105.723 11.9659 105.181 11.5889 104.864 11.2356H104.868C104.681 11.0245 104.366 11.0115 104.162 11.2054C103.958 11.3993 103.945 11.7268 104.133 11.9357C104.589 12.4506 105.383 13 106.5 13C107.617 13 108.409 12.4485 108.868 11.9357C109.056 11.7268 109.041 11.3993 108.839 11.2054C108.637 11.0115 108.32 11.0266 108.132 11.2356C107.815 11.5889 107.274 11.9659 106.498 11.9659Z" fill="#00468B"/>
<path d="M104.368 9.20192C104.243 9.33121 104.172 9.50656 104.172 9.6894C104.172 9.87223 104.243 10.0476 104.368 10.1769C104.493 10.3062 104.662 10.3788 104.839 10.3788C105.016 10.3788 105.186 10.3062 105.311 10.1769C105.436 10.0476 105.506 9.87223 105.506 9.6894C105.506 9.50656 105.436 9.33121 105.311 9.20192C105.186 9.07263 105.016 9 104.839 9C104.662 9 104.493 9.07263 104.368 9.20192Z" fill="#00468B"/>
<path d="M108.646 9.20192C108.52 9.07263 108.351 9 108.174 9C107.997 9 107.827 9.07263 107.702 9.20192C107.577 9.33121 107.507 9.50656 107.507 9.6894C107.507 9.87223 107.577 10.0476 107.702 10.1769C107.827 10.3062 107.997 10.3788 108.174 10.3788C108.351 10.3788 108.52 10.3062 108.646 10.1769C108.771 10.0476 108.841 9.87223 108.841 9.6894C108.841 9.50656 108.771 9.33121 108.646 9.20192Z" fill="#00468B"/>
<path d="M35.626 2.77H38.506V17.35H35.626V2.77ZM27.742 17.44C26.686 17.44 25.834 17.302 25.186 17.026C24.55 16.75 24.058 16.39 23.71 15.946C23.362 15.49 23.128 14.98 23.008 14.416C22.9 13.84 22.846 13.258 22.846 12.67V7.45C22.846 6.862 22.9 6.286 23.008 5.722C23.128 5.146 23.362 4.636 23.71 4.192C24.058 3.748 24.55 3.388 25.186 3.112C25.834 2.836 26.686 2.698 27.742 2.698C28.798 2.698 29.644 2.836 30.28 3.112C30.928 3.388 31.426 3.748 31.774 4.192C32.122 4.636 32.35 5.146 32.458 5.722C32.578 6.286 32.638 6.862 32.638 7.45V12.67C32.638 13.258 32.578 13.84 32.458 14.416C32.35 14.98 32.122 15.49 31.774 15.946C31.426 16.39 30.928 16.75 30.28 17.026C29.644 17.302 28.798 17.44 27.742 17.44ZM27.742 4.714C27.514 4.714 27.28 4.744 27.04 4.804C26.8 4.864 26.578 4.972 26.374 5.128C26.182 5.284 26.02 5.5 25.888 5.776C25.768 6.052 25.708 6.412 25.708 6.856V13.264C25.708 13.708 25.768 14.068 25.888 14.344C26.02 14.62 26.182 14.836 26.374 14.992C26.578 15.148 26.8 15.256 27.04 15.316C27.28 15.376 27.514 15.406 27.742 15.406C27.97 15.406 28.204 15.376 28.444 15.316C28.684 15.256 28.9 15.148 29.092 14.992C29.296 14.836 29.458 14.62 29.578 14.344C29.71 14.068 29.776 13.708 29.776 13.264V6.856C29.776 6.412 29.71 6.052 29.578 5.776C29.458 5.5 29.296 5.284 29.092 5.128C28.9 4.972 28.684 4.864 28.444 4.804C28.204 4.744 27.97 4.714 27.742 4.714ZM40.792 9.412H57.19V11.518H40.792V9.412ZM56.182 15.226C56.158 15.946 55.936 16.504 55.516 16.9C55.096 17.308 54.556 17.602 53.896 17.782C53.236 17.974 52.492 18.088 51.664 18.124C50.836 18.16 50.002 18.178 49.162 18.178C48.286 18.178 47.41 18.16 46.534 18.124C45.67 18.088 44.89 17.974 44.194 17.782C43.498 17.602 42.928 17.314 42.484 16.918C42.052 16.522 41.83 15.958 41.818 15.226V12.526H56.182V15.226ZM49.162 16.09C49.834 16.09 50.428 16.084 50.944 16.072C51.46 16.072 51.892 16.036 52.24 15.964C52.588 15.892 52.852 15.778 53.032 15.622C53.212 15.454 53.302 15.214 53.302 14.902V14.596H44.698V14.902C44.698 15.214 44.806 15.454 45.022 15.622C45.238 15.778 45.538 15.892 45.922 15.964C46.318 16.036 46.786 16.072 47.326 16.072C47.878 16.084 48.49 16.09 49.162 16.09ZM45.778 8.422C45.25 8.422 44.74 8.392 44.248 8.332C43.756 8.26 43.318 8.122 42.934 7.918C42.562 7.714 42.262 7.426 42.034 7.054C41.806 6.67 41.692 6.172 41.692 5.56C41.692 4.96 41.806 4.468 42.034 4.084C42.262 3.7 42.562 3.4 42.934 3.184C43.318 2.956 43.756 2.8 44.248 2.716C44.74 2.632 45.25 2.59 45.778 2.59H52.204C52.732 2.59 53.242 2.632 53.734 2.716C54.226 2.8 54.658 2.956 55.03 3.184C55.414 3.4 55.72 3.7 55.948 4.084C56.176 4.468 56.29 4.96 56.29 5.56C56.29 6.172 56.176 6.67 55.948 7.054C55.72 7.426 55.414 7.714 55.03 7.918C54.658 8.122 54.226 8.26 53.734 8.332C53.242 8.392 52.732 8.422 52.204 8.422H45.778ZM52.384 6.316C53.068 6.316 53.41 6.058 53.41 5.542C53.41 5.242 53.32 5.026 53.14 4.894C52.96 4.762 52.708 4.696 52.384 4.696H45.598C45.274 4.696 45.022 4.762 44.842 4.894C44.662 5.026 44.572 5.242 44.572 5.542C44.572 6.058 44.914 6.316 45.598 6.316H52.384ZM61.852 11.5C61.504 11.5 61.15 11.47 60.79 11.41C60.442 11.338 60.124 11.212 59.836 11.032C59.548 10.852 59.314 10.594 59.134 10.258C58.954 9.922 58.864 9.484 58.864 8.944C58.864 8.428 58.954 8.008 59.134 7.684C59.326 7.348 59.566 7.084 59.854 6.892C60.142 6.7 60.46 6.568 60.808 6.496C61.168 6.412 61.522 6.37 61.87 6.37H65.83C66.178 6.37 66.526 6.412 66.874 6.496C67.234 6.568 67.558 6.7 67.846 6.892C68.134 7.084 68.368 7.348 68.548 7.684C68.728 8.008 68.818 8.428 68.818 8.944C68.818 9.484 68.728 9.922 68.548 10.258C68.368 10.594 68.134 10.852 67.846 11.032C67.558 11.212 67.234 11.338 66.874 11.41C66.526 11.47 66.178 11.5 65.83 11.5H61.852ZM59.764 12.526H70.6C70.996 12.526 71.356 12.562 71.68 12.634C72.016 12.694 72.304 12.814 72.544 12.994C72.784 13.162 72.97 13.402 73.102 13.714C73.234 14.014 73.3 14.398 73.3 14.866V17.998H70.42V15.766C70.42 15.322 70.342 15.022 70.186 14.866C70.042 14.71 69.718 14.632 69.214 14.632H59.764V12.526ZM70.42 2.77H73.3V5.83H75.586V7.936H73.3V11.716H70.42V2.77ZM58.414 3.328H62.428V1.942H65.308V3.328H69.304V5.434H58.414V3.328ZM65.398 9.538C65.782 9.538 65.974 9.34 65.974 8.944C65.974 8.572 65.782 8.386 65.398 8.386H62.284C61.9 8.386 61.708 8.572 61.708 8.944C61.708 9.34 61.9 9.538 62.284 9.538H65.398ZM81.742 18.178C81.214 18.178 80.704 18.136 80.212 18.052C79.72 17.98 79.282 17.836 78.898 17.62C78.526 17.404 78.226 17.104 77.998 16.72C77.77 16.336 77.656 15.838 77.656 15.226C77.656 14.626 77.77 14.134 77.998 13.75C78.226 13.354 78.526 13.042 78.898 12.814C79.282 12.574 79.72 12.406 80.212 12.31C80.704 12.214 81.214 12.166 81.742 12.166H87.322C87.85 12.166 88.36 12.214 88.852 12.31C89.344 12.406 89.776 12.574 90.148 12.814C90.532 13.042 90.838 13.354 91.066 13.75C91.294 14.134 91.408 14.626 91.408 15.226C91.408 15.838 91.294 16.336 91.066 16.72C90.838 17.104 90.532 17.404 90.148 17.62C89.776 17.836 89.344 17.98 88.852 18.052C88.36 18.136 87.85 18.178 87.322 18.178H81.742ZM86.458 2.77V4.804H79.744V7.522C79.744 7.906 79.816 8.17 79.96 8.314C80.104 8.458 80.38 8.53 80.788 8.53H86.638V10.636H80.194C79.51 10.636 78.946 10.6 78.502 10.528C78.07 10.456 77.734 10.312 77.494 10.096C77.254 9.868 77.086 9.556 76.99 9.16C76.906 8.764 76.864 8.242 76.864 7.594V2.77H86.458ZM88.42 2.77H91.3V5.83H93.586V7.936H91.3V11.356H88.42V2.77ZM87.502 16.072C87.85 16.072 88.108 16 88.276 15.856C88.444 15.7 88.528 15.484 88.528 15.208C88.528 14.908 88.438 14.68 88.258 14.524C88.078 14.356 87.826 14.272 87.502 14.272H81.562C81.238 14.272 80.986 14.356 80.806 14.524C80.626 14.68 80.536 14.908 80.536 15.208C80.536 15.484 80.62 15.7 80.788 15.856C80.956 16 81.214 16.072 81.562 16.072H87.502Z" fill="#00468B"/>
<defs>
<linearGradient id="paint0_linear_658_8224" x1="-1.12383e-06" y1="-1.25911e-08" x2="9.39537" y2="42.2876" gradientUnits="userSpaceOnUse">
<stop stop-color="#FFCC00"/>
<stop offset="1" stop-color="#FF7700"/>
</linearGradient>
<linearGradient id="paint1_linear_658_8224" x1="-1.12383e-06" y1="-1.25911e-08" x2="9.39537" y2="42.2876" gradientUnits="userSpaceOnUse">
<stop stop-color="#FBFF00"/>
<stop offset="1" stop-color="#FF7700"/>
</linearGradient>
<linearGradient id="paint2_linear_658_8224" x1="106" y1="1" x2="106" y2="24.8586" gradientUnits="userSpaceOnUse">
<stop stop-color="#00D5FF"/>
<stop offset="1" stop-color="#0080FF"/>
</linearGradient>
</defs>
</svg>
